<svg width="400" height="300" viewBox="0 0 400 300" fill="none" xmlns="http://www.w3.org/2000/svg">
<g clip-path="url(#clip0)">
<path d="M350.819 227.369C340.584 227.279 330.367 226.53 320.229 225.127C319.873 225.078 319.517 225.024 319.161 224.975L319.697 129.216C320.05 128.935 320.408 128.658 320.77 128.39C321.968 127.496 323.201 126.658 324.476 125.889C330.618 122.192 337.809 120.499 342.77 122.195L342.847 122.226C343.934 122.592 344.937 123.169 345.799 123.923C350.156 127.79 349.43 135.609 345.913 142.705C352.886 136.341 361.684 131.273 369.537 130.888C377.197 130.511 382.67 134.512 387.32 138.853C387.474 138.996 387.623 139.138 387.773 139.28C387.849 139.349 387.922 139.423 387.999 139.492C391.543 142.878 395.036 146.826 394.614 152.541C394.149 158.809 388.895 165.758 382.772 170.63C376.654 175.502 369.703 178.74 362.92 182.022C356.141 185.308 349.188 188.863 343.394 194.136C352.435 186.994 362.722 181.236 372.727 179.109C382.733 176.981 392.342 178.853 397.054 185.219C398.44 187.151 399.343 189.387 399.687 191.74C399.733 192.014 399.77 192.293 399.803 192.577C400.474 198.469 398.434 205.504 393.559 211.49C388.19 218.082 380.232 222.652 372.677 224.926C365.122 227.2 357.849 227.442 350.819 227.369Z" fill="#F2F2F2"/>
<path d="M316.506 46H55.9491C54.9567 46.0009 54.0051 46.3952 53.3034 47.0964C52.6016 47.7975 52.207 48.7483 52.2061 49.7398V226.147C52.207 227.139 52.6016 228.089 53.3034 228.79C54.0051 229.492 54.9567 229.886 55.9491 229.887H316.506C317.047 229.887 317.582 229.77 318.073 229.543C318.564 229.316 319.001 228.986 319.352 228.574C319.382 228.542 319.409 228.508 319.433 228.471C319.657 228.199 319.838 227.893 319.97 227.567C320.158 227.117 320.255 226.634 320.253 226.147V49.7399C320.252 48.7476 319.857 47.7963 319.154 47.0951C318.451 46.3938 317.499 45.9999 316.506 46V46ZM319.184 226.147C319.185 226.669 319.031 227.179 318.742 227.614C318.486 227.996 318.137 228.309 317.729 228.523C317.351 228.718 316.931 228.82 316.506 228.819H55.9491C55.2401 228.818 54.5604 228.536 54.0591 228.035C53.5577 227.534 53.2757 226.855 53.2748 226.147V49.7399C53.2757 49.0315 53.5577 48.3524 54.0591 47.8515C54.5604 47.3506 55.2401 47.0688 55.9491 47.0679H316.506C317.215 47.0678 317.896 47.3492 318.398 47.8501C318.901 48.3511 319.183 49.0308 319.184 49.7399V226.147Z" fill="#3F3D56"/>
<path d="M319.716 60.989H52.7395V62.0581H319.716V60.989Z" fill="#3F3D56"/>
<path d="M61.8349 57.2257C63.6079 57.2257 65.0451 55.7898 65.0451 54.0184C65.0451 52.247 63.6079 50.811 61.8349 50.811C60.062 50.811 58.6248 52.247 58.6248 54.0184C58.6248 55.7898 60.062 57.2257 61.8349 57.2257Z" fill="#3F3D56"/>
<path d="M71.0641 57.2257C72.837 57.2257 74.2742 55.7898 74.2742 54.0184C74.2742 52.247 72.837 50.811 71.0641 50.811C69.2912 50.811 67.8539 52.247 67.8539 54.0184C67.8539 55.7898 69.2912 57.2257 71.0641 57.2257Z" fill="#3F3D56"/>
<path d="M80.2933 57.2257C82.0662 57.2257 83.5034 55.7898 83.5034 54.0184C83.5034 52.247 82.0662 50.811 80.2933 50.811C78.5204 50.811 77.0831 52.247 77.0831 54.0184C77.0831 55.7898 78.5204 57.2257 80.2933 57.2257Z" fill="#3F3D56"/>
<path d="M253.234 85.7366H119.307C117.827 85.7366 116.407 85.1492 115.361 84.1036C114.314 83.058 113.726 81.6398 113.726 80.1611C113.726 78.6824 114.314 77.2643 115.361 76.2187C116.407 75.1731 117.827 74.5857 119.307 74.5857H253.234C254.714 74.5857 256.133 75.1731 257.18 76.2187C258.226 77.2643 258.814 78.6824 258.814 80.1611C258.814 81.6398 258.226 83.058 257.18 84.1036C256.133 85.1492 254.714 85.7366 253.234 85.7366ZM119.307 75.4435C118.054 75.4435 116.853 75.9405 115.968 76.8252C115.082 77.71 114.585 78.9099 114.585 80.1611C114.585 81.4123 115.082 82.6123 115.968 83.4971C116.853 84.3818 118.054 84.8788 119.307 84.8788H253.234C254.486 84.8788 255.687 84.3818 256.572 83.4971C257.458 82.6123 257.955 81.4123 257.955 80.1611C257.955 78.9099 257.458 77.71 256.572 76.8252C255.687 75.9405 254.486 75.4435 253.234 75.4435H119.307Z" fill="#3F3D56"/>
<path d="M120.425 119.833H108.406C107.496 119.833 106.622 119.471 105.978 118.828C105.334 118.184 104.972 117.312 104.972 116.402C104.972 115.492 105.334 114.619 105.978 113.975C106.622 113.332 107.496 112.971 108.406 112.971H120.425C121.336 112.971 122.21 113.332 122.854 113.975C123.498 114.619 123.859 115.492 123.859 116.402C123.859 117.312 123.498 118.184 122.854 118.828C122.21 119.471 121.336 119.833 120.425 119.833Z" fill="#CCCCCC"/>
<path d="M134.591 131.412H108.406C107.496 131.412 106.622 131.051 105.978 130.407C105.334 129.764 104.972 128.891 104.972 127.981C104.972 127.071 105.334 126.199 105.978 125.555C106.622 124.912 107.496 124.55 108.406 124.55H134.591C135.502 124.55 136.375 124.912 137.019 125.555C137.663 126.199 138.025 127.071 138.025 127.981C138.025 128.891 137.663 129.764 137.019 130.407C136.375 131.051 135.502 131.412 134.591 131.412Z" fill="#CCCCCC"/>
<path d="M122.572 170.441H110.553C109.642 170.441 108.768 170.079 108.124 169.436C107.48 168.792 107.119 167.92 107.119 167.01C107.119 166.1 107.48 165.227 108.124 164.583C108.768 163.94 109.642 163.578 110.553 163.578H122.572C123.483 163.578 124.356 163.94 125 164.583C125.644 165.227 126.006 166.1 126.006 167.01C126.006 167.92 125.644 168.792 125 169.436C124.356 170.079 123.483 170.441 122.572 170.441Z" fill="#CCCCCC"/>
<path d="M136.737 182.02H110.553C109.642 182.02 108.768 181.659 108.124 181.015C107.48 180.372 107.119 179.499 107.119 178.589C107.119 177.679 107.48 176.807 108.124 176.163C108.768 175.52 109.642 175.158 110.553 175.158H136.737C137.648 175.158 138.521 175.52 139.165 176.163C139.809 176.807 140.171 177.679 140.171 178.589C140.171 179.499 139.809 180.372 139.165 181.015C138.521 181.659 137.648 182.02 136.737 182.02Z" fill="#CCCCCC"/>
<path d="M201.554 169.154H189.535C188.624 169.154 187.751 168.792 187.107 168.149C186.463 167.505 186.101 166.633 186.101 165.723C186.101 164.813 186.463 163.94 187.107 163.297C187.751 162.653 188.624 162.292 189.535 162.292H201.554C202.465 162.292 203.339 162.653 203.983 163.297C204.627 163.94 204.988 164.813 204.988 165.723C204.988 166.633 204.627 167.505 203.983 168.149C203.339 168.792 202.465 169.154 201.554 169.154Z" fill="#CCCCCC"/>
<path d="M215.72 180.734H189.535C188.624 180.734 187.751 180.372 187.107 179.729C186.463 179.085 186.101 178.213 186.101 177.303C186.101 176.393 186.463 175.52 187.107 174.877C187.751 174.233 188.624 173.872 189.535 173.872H215.72C216.63 173.872 217.504 174.233 218.148 174.877C218.792 175.52 219.154 176.393 219.154 177.303C219.154 178.213 218.792 179.085 218.148 179.729C217.504 180.372 216.63 180.734 215.72 180.734Z" fill="#CCCCCC"/>
<path d="M200.267 121.977H188.247C187.337 121.977 186.463 121.616 185.819 120.972C185.175 120.329 184.813 119.456 184.813 118.546C184.813 117.636 185.175 116.763 185.819 116.12C186.463 115.476 187.337 115.115 188.247 115.115H200.267C201.177 115.115 202.051 115.476 202.695 116.12C203.339 116.763 203.701 117.636 203.701 118.546C203.701 119.456 203.339 120.329 202.695 120.972C202.051 121.616 201.177 121.977 200.267 121.977Z" fill="#CCCCCC"/>
<path d="M214.432 133.557H188.247C187.337 133.557 186.463 133.195 185.819 132.552C185.175 131.908 184.813 131.036 184.813 130.126C184.813 129.216 185.175 128.343 185.819 127.7C186.463 127.056 187.337 126.695 188.247 126.695H214.432C215.343 126.695 216.216 127.056 216.86 127.7C217.504 128.343 217.866 129.216 217.866 130.126C217.866 131.036 217.504 131.908 216.86 132.552C216.216 133.195 215.343 133.557 214.432 133.557Z" fill="#CCCCCC"/>
<path d="M280.537 119.404H268.518C267.607 119.404 266.734 119.042 266.09 118.399C265.446 117.755 265.084 116.883 265.084 115.973C265.084 115.063 265.446 114.19 266.09 113.547C266.734 112.903 267.607 112.542 268.518 112.542H280.537C281.448 112.542 282.321 112.903 282.965 113.547C283.609 114.19 283.971 115.063 283.971 115.973C283.971 116.883 283.609 117.755 282.965 118.399C282.321 119.042 281.448 119.404 280.537 119.404Z" fill="#CCCCCC"/>
<path d="M294.702 130.983H268.518C267.607 130.983 266.734 130.622 266.09 129.979C265.446 129.335 265.084 128.462 265.084 127.552C265.084 126.642 265.446 125.77 266.09 125.126C266.734 124.483 267.607 124.121 268.518 124.121H294.702C295.613 124.121 296.486 124.483 297.13 125.126C297.774 125.77 298.136 126.642 298.136 127.552C298.136 128.462 297.774 129.335 297.13 129.979C296.486 130.622 295.613 130.983 294.702 130.983Z" fill="#CCCCCC"/>
<path d="M87.2006 135.058C94.3127 135.058 100.078 129.297 100.078 122.191C100.078 115.086 94.3127 109.325 87.2006 109.325C80.0885 109.325 74.323 115.086 74.323 122.191C74.323 129.297 80.0885 135.058 87.2006 135.058Z" fill="#0062CC"/>
<path d="M166.183 137.202C173.295 137.202 179.061 131.442 179.061 124.336C179.061 117.23 173.295 111.469 166.183 111.469C159.071 111.469 153.306 117.23 153.306 124.336C153.306 131.442 159.071 137.202 166.183 137.202Z" fill="#0062CC"/>
<path d="M245.595 134.629C252.707 134.629 258.473 128.868 258.473 121.763C258.473 114.657 252.707 108.896 245.595 108.896C238.483 108.896 232.717 114.657 232.717 121.763C232.717 128.868 238.483 134.629 245.595 134.629Z" fill="#0062CC"/>
<path d="M87.2006 185.666C94.3127 185.666 100.078 179.905 100.078 172.799C100.078 165.693 94.3127 159.933 87.2006 159.933C80.0885 159.933 74.323 165.693 74.323 172.799C74.323 179.905 80.0885 185.666 87.2006 185.666Z" fill="#0062CC"/>
<path d="M167.042 184.379C174.154 184.379 179.919 178.619 179.919 171.513C179.919 164.407 174.154 158.646 167.042 158.646C159.93 158.646 154.164 164.407 154.164 171.513C154.164 178.619 159.93 184.379 167.042 184.379Z" fill="#0062CC"/>
<path d="M42.7425 248.088H48.0051L50.5085 227.807L42.7416 227.807L42.7425 248.088Z" fill="#FFB8B8"/>
<path d="M58.1543 252.969L41.6149 252.97L41.6146 246.586L51.7638 246.585C53.4586 246.585 55.084 247.258 56.2825 248.455C57.4809 249.652 58.1543 251.276 58.1543 252.969V252.969L58.1543 252.969Z" fill="#2F2E41"/>
<path d="M22.9968 248.088H28.2595L30.7629 227.807L22.996 227.807L22.9968 248.088Z" fill="#FFB8B8"/>
<path d="M38.4087 252.969L21.8692 252.97L21.869 246.586L32.0182 246.585C33.713 246.585 35.3384 247.258 36.5368 248.455C37.7353 249.652 38.4086 251.276 38.4087 252.969V252.969L38.4087 252.969Z" fill="#2F2E41"/>
<path d="M23.6395 187.685C24.2065 187.32 24.6866 186.836 25.046 186.266C25.4055 185.697 25.6355 185.055 25.7199 184.387C25.8043 183.719 25.741 183.04 25.5345 182.399C25.328 181.758 24.9833 181.169 24.5247 180.676L27.9899 131.544L18.0084 132.511L17.7343 180.626C16.9553 181.451 16.5061 182.532 16.4719 183.666C16.4377 184.799 16.8209 185.906 17.5488 186.776C18.2767 187.646 19.2987 188.219 20.4213 188.387C21.5439 188.554 22.6889 188.305 23.6395 187.685H23.6395Z" fill="#FFB8B8"/>
<path d="M42.8993 237.873C42.4271 237.872 41.9717 237.698 41.6186 237.385C41.2654 237.072 41.0387 236.641 40.9811 236.172L37.9221 210.61C37.8791 210.25 37.7071 209.918 37.438 209.675C37.1689 209.432 36.8208 209.294 36.4581 209.287C36.0953 209.281 35.7424 209.405 35.4645 209.638C35.1866 209.871 35.0025 210.197 34.9462 210.555L31.0928 235.03C31.023 235.485 30.792 235.9 30.4418 236.199C30.0915 236.499 29.6454 236.662 29.1846 236.66H22.939C22.6841 236.66 22.4317 236.61 22.1964 236.512C21.9611 236.414 21.7475 236.271 21.568 236.09C21.3884 235.909 21.2464 235.695 21.1502 235.459C21.054 235.223 21.0054 234.97 21.0073 234.716L23.9882 180.448C23.9893 179.986 24.1572 179.54 24.4611 179.191C24.7649 178.843 25.1844 178.616 25.6423 178.552L48.8193 175.19C49.0946 175.151 49.3754 175.171 49.6423 175.249C49.9092 175.328 50.156 175.463 50.3658 175.646C50.5756 175.828 50.7434 176.054 50.8577 176.308C50.9721 176.561 51.0303 176.836 51.0284 177.114L50.6241 235.681C50.6207 236.174 50.4281 236.648 50.0858 237.004C49.7436 237.36 49.2779 237.571 48.7844 237.595L42.991 237.871C42.9603 237.872 42.9297 237.873 42.8993 237.873Z" fill="#2F2E41"/>
<path d="M30.8834 182.498C28.654 182.489 26.4429 182.096 24.3476 181.335C23.9924 181.204 23.6839 180.972 23.461 180.666C23.2381 180.36 23.1108 179.995 23.0951 179.618C22.8951 175.184 21.7254 152.365 18.3199 138.445C17.6579 135.715 17.8198 132.85 18.7851 130.211C19.7504 127.572 21.4759 125.278 23.7441 123.618C23.9273 123.486 24.114 123.357 24.3043 123.23C26.274 121.92 28.5463 121.135 30.9052 120.951C33.2641 120.766 35.6311 121.187 37.781 122.175C40.0019 123.168 41.9317 124.712 43.3866 126.66C44.8415 128.609 45.7731 130.897 46.0928 133.307L51.6463 174.502C51.6819 174.759 51.6649 175.021 51.5962 175.272C51.5275 175.523 51.4086 175.757 51.2466 175.96C51.0881 176.162 50.8902 176.33 50.6649 176.453C50.4396 176.577 50.1916 176.653 49.9359 176.678C48.0116 176.87 44.0205 177.615 38.9127 180.45C36.4564 181.81 33.6913 182.515 30.8834 182.498V182.498Z" fill="#3F3D56"/>
<path d="M24.094 148.351L14.9549 145.875C14.4608 145.741 14.0402 145.416 13.7855 144.972C13.5307 144.528 13.4626 144.001 13.5961 143.507L16.8089 131.668C17.153 130.4 17.9548 129.304 19.0598 128.591C20.1648 127.879 21.4947 127.601 22.793 127.81C24.0914 128.019 25.2662 128.701 26.091 129.725C26.9157 130.748 27.332 132.04 27.2596 133.352L26.5283 146.594C26.5124 146.882 26.4326 147.162 26.2946 147.414C26.1565 147.666 25.9638 147.884 25.7305 148.053C25.4972 148.221 25.2291 148.335 24.946 148.387C24.6629 148.438 24.3718 148.426 24.094 148.351V148.351Z" fill="#3F3D56"/>
<path d="M34.2674 116.581C40.0901 116.581 44.8103 111.865 44.8103 106.048C44.8103 100.23 40.0901 95.5139 34.2674 95.5139C28.4448 95.5139 23.7245 100.23 23.7245 106.048C23.7245 111.865 28.4448 116.581 34.2674 116.581Z" fill="#FFB8B8"/>
<path d="M72.4726 126.743C72.4199 126.974 72.3856 127.21 72.3699 127.446L53.9303 138.075L49.4482 135.497L44.6702 141.747L54.2584 148.575L75.2952 131.993C76.1533 132.31 77.0876 132.359 77.974 132.133C78.8604 131.907 79.6568 131.416 80.2574 130.726C80.858 130.037 81.2342 129.181 81.3361 128.273C81.438 127.364 81.2607 126.446 80.8277 125.641C80.3948 124.836 79.7268 124.182 78.9125 123.765C78.0982 123.348 77.1763 123.189 76.2693 123.309C75.3623 123.428 74.5132 123.821 73.835 124.434C73.1568 125.048 72.6816 125.853 72.4726 126.743V126.743Z" fill="#FFB8B8"/>
<path d="M52.402 138.588L44.459 143.738C44.0291 144.016 43.5063 144.113 43.0054 144.006C42.5045 143.899 42.0664 143.599 41.7871 143.17L35.1037 132.88C34.3877 131.778 34.1055 130.45 34.3116 129.152C34.5176 127.854 35.1972 126.679 36.2194 125.852C37.2416 125.025 38.5339 124.606 39.8472 124.675C41.1605 124.744 42.4018 125.296 43.3316 126.225L52.7166 135.604C52.9201 135.808 53.0755 136.054 53.1716 136.325C53.2676 136.596 53.3018 136.885 53.2717 137.171C53.2415 137.457 53.1478 137.733 52.9973 137.978C52.8469 138.223 52.6435 138.431 52.402 138.588Z" fill="#3F3D56"/>
<path d="M26.8068 114.381C28.7736 116.475 32.4263 115.351 32.6825 112.491C32.7026 112.269 32.7012 112.046 32.6782 111.824C32.5459 110.557 31.8134 109.407 31.9889 108.07C32.0286 107.737 32.1527 107.42 32.3495 107.148C33.9168 105.051 37.5959 108.086 39.0751 106.188C39.9821 105.024 38.9159 103.191 39.612 101.89C40.5306 100.173 43.2515 101.02 44.9578 100.08C46.8563 99.0335 46.7428 96.1233 45.493 94.3531C43.969 92.1943 41.2968 91.0423 38.6579 90.8763C36.019 90.7103 33.3983 91.423 30.9346 92.3823C28.1355 93.4722 25.3596 94.9785 23.6371 97.4378C21.5422 100.428 21.3406 104.449 22.3883 107.946C23.0256 110.073 25.2007 112.672 26.8068 114.381Z" fill="#2F2E41"/>
<path d="M68.5247 253H8.42927C8.31542 253 8.20624 252.955 8.12574 252.874C8.04524 252.794 8.00002 252.685 8.00002 252.571C8.00002 252.457 8.04524 252.348 8.12574 252.268C8.20624 252.187 8.31542 252.142 8.42927 252.142H68.5247C68.6386 252.142 68.7477 252.187 68.8282 252.268C68.9087 252.348 68.954 252.457 68.954 252.571C68.954 252.685 68.9087 252.794 68.8282 252.874C68.7477 252.955 68.6386 253 68.5247 253Z" fill="#3F3D56"/>
</g>
<defs>
<clipPath id="clip0">
<rect width="392" height="207" fill="white" transform="translate(8 46)"/>
</clipPath>
</defs>
</svg>
