<svg width="400" height="300" viewBox="0 0 400 300" fill="none" xmlns="http://www.w3.org/2000/svg">
<g clip-path="url(#clip0)">
<path d="M60.6088 47C57.531 47.0035 54.5803 48.2271 52.404 50.4024C50.2277 52.5776 49.0035 55.5269 49 58.6032V270.397C49.0035 273.473 50.2278 276.422 52.4041 278.598C54.5804 280.773 57.531 281.996 60.6088 282H176.674C179.752 281.996 182.703 280.773 184.879 278.598C187.055 276.422 188.28 273.473 188.283 270.397V58.6032C188.28 55.5269 187.055 52.5776 184.879 50.4024C182.703 48.2271 179.752 47.0035 176.674 47H60.6088Z" fill="#E6E6E6"/>
<path d="M64.403 53.5924C62.068 53.5951 59.8293 54.5234 58.1782 56.1737C56.5271 57.824 55.5984 60.0616 55.5957 62.3955V266.604C55.5983 268.938 56.5271 271.176 58.1782 272.826C59.8293 274.477 62.068 275.405 64.403 275.408H172.88C175.215 275.405 177.454 274.477 179.105 272.826C180.756 271.176 181.685 268.938 181.688 266.604V62.3955C181.685 60.0616 180.756 57.824 179.105 56.1737C177.454 54.5234 175.215 53.5951 172.88 53.5924H64.403Z" fill="white"/>
<path d="M171.018 96.6322H66.2646C65.7503 96.6316 65.2572 96.4271 64.8936 96.0636C64.5299 95.7001 64.3253 95.2073 64.3247 94.6932V68.7209C64.3253 68.2068 64.5299 67.714 64.8936 67.3505C65.2572 66.987 65.7503 66.7825 66.2646 66.7819H171.018C171.532 66.7825 172.025 66.987 172.389 67.3505C172.753 67.714 172.957 68.2068 172.958 68.7209V94.6932C172.957 95.2073 172.753 95.7001 172.389 96.0636C172.025 96.4271 171.532 96.6316 171.018 96.6322V96.6322ZM66.2646 67.5575C65.956 67.5578 65.6601 67.6805 65.4419 67.8986C65.2237 68.1167 65.101 68.4124 65.1006 68.7209V94.6932C65.101 95.0017 65.2237 95.2974 65.4419 95.5155C65.6601 95.7336 65.956 95.8563 66.2646 95.8566H171.018C171.327 95.8563 171.623 95.7336 171.841 95.5155C172.059 95.2974 172.182 95.0017 172.182 94.6932V68.7209C172.182 68.4124 172.059 68.1167 171.841 67.8986C171.623 67.6805 171.327 67.5578 171.018 67.5575L66.2646 67.5575Z" fill="#E6E6E6"/>
<path d="M171.018 199.396H66.2646C65.7503 199.396 65.2572 199.191 64.8936 198.828C64.5299 198.464 64.3253 197.971 64.3247 197.457V149.381C64.3253 148.867 64.5299 148.374 64.8936 148.011C65.2572 147.647 65.7503 147.443 66.2646 147.442H171.018C171.532 147.443 172.025 147.647 172.389 148.011C172.753 148.374 172.957 148.867 172.958 149.381V197.457C172.957 197.971 172.753 198.464 172.389 198.828C172.025 199.191 171.532 199.396 171.018 199.396V199.396ZM66.2646 148.218C65.956 148.218 65.6601 148.341 65.4419 148.559C65.2237 148.777 65.101 149.073 65.1006 149.381V197.457C65.101 197.766 65.2237 198.061 65.4419 198.28C65.6601 198.498 65.956 198.62 66.2646 198.621H171.018C171.327 198.62 171.623 198.498 171.841 198.28C172.059 198.061 172.182 197.766 172.182 197.457V149.381C172.182 149.073 172.059 148.777 171.841 148.559C171.623 148.341 171.327 148.218 171.018 148.218L66.2646 148.218Z" fill="#E6E6E6"/>
<path d="M170.242 136.962H123.685C123.171 136.962 122.678 136.757 122.314 136.394C121.95 136.03 121.746 135.537 121.745 135.023V109.051C121.746 108.537 121.95 108.044 122.314 107.681C122.678 107.317 123.171 107.113 123.685 107.112H170.242C170.757 107.113 171.25 107.317 171.613 107.681C171.977 108.044 172.181 108.537 172.182 109.051V135.023C172.181 135.537 171.977 136.03 171.613 136.394C171.25 136.757 170.756 136.962 170.242 136.962V136.962ZM123.685 107.888C123.376 107.888 123.081 108.011 122.862 108.229C122.644 108.447 122.521 108.742 122.521 109.051V135.023C122.521 135.332 122.644 135.627 122.862 135.846C123.081 136.064 123.376 136.186 123.685 136.187H170.242C170.551 136.186 170.847 136.064 171.065 135.846C171.283 135.627 171.406 135.332 171.406 135.023V109.051C171.406 108.742 171.283 108.447 171.065 108.229C170.847 108.01 170.551 107.888 170.242 107.887L123.685 107.888Z" fill="#E6E6E6"/>
<path d="M112.822 262.218H66.2646C65.7503 262.217 65.2572 262.013 64.8936 261.649C64.5299 261.286 64.3253 260.793 64.3247 260.279V211.815C64.3253 211.301 64.5299 210.808 64.8936 210.445C65.2572 210.081 65.7503 209.877 66.2646 209.876H112.822C113.336 209.877 113.829 210.081 114.193 210.445C114.556 210.808 114.761 211.301 114.762 211.815V260.279C114.761 260.793 114.556 261.286 114.193 261.649C113.829 262.013 113.336 262.217 112.822 262.218V262.218ZM66.2646 210.652C65.956 210.652 65.6601 210.775 65.4419 210.993C65.2237 211.211 65.101 211.506 65.1006 211.815V260.279C65.101 260.587 65.2237 260.883 65.4419 261.101C65.6601 261.319 65.956 261.442 66.2646 261.442H112.822C113.13 261.442 113.426 261.319 113.644 261.101C113.863 260.883 113.985 260.587 113.986 260.279V211.815C113.985 211.506 113.863 211.211 113.644 210.993C113.426 210.775 113.13 210.652 112.822 210.652H66.2646Z" fill="#E6E6E6"/>
<path d="M170.242 262.218H123.685C123.171 262.217 122.678 262.013 122.314 261.649C121.95 261.286 121.746 260.793 121.745 260.279V211.815C121.746 211.301 121.95 210.808 122.314 210.445C122.678 210.081 123.171 209.877 123.685 209.876H170.242C170.756 209.877 171.25 210.081 171.613 210.445C171.977 210.808 172.181 211.301 172.182 211.815V260.279C172.181 260.793 171.977 261.286 171.613 261.649C171.25 262.013 170.757 262.217 170.242 262.218V262.218ZM123.685 210.652C123.376 210.652 123.081 210.775 122.862 210.993C122.644 211.211 122.521 211.506 122.521 211.815V260.279C122.521 260.587 122.644 260.883 122.862 261.101C123.081 261.319 123.376 261.442 123.685 261.442H170.242C170.551 261.442 170.847 261.319 171.065 261.101C171.283 260.883 171.406 260.587 171.406 260.279V211.815C171.406 211.506 171.283 211.211 171.065 210.993C170.847 210.775 170.551 210.652 170.242 210.652H123.685Z" fill="#E6E6E6"/>
<path d="M81.7653 172.371C86.1295 172.371 89.6673 168.835 89.6673 164.473C89.6673 160.111 86.1295 156.575 81.7653 156.575C77.4011 156.575 73.8633 160.111 73.8633 164.473C73.8633 168.835 77.4011 172.371 81.7653 172.371Z" fill="#E6E6E6"/>
<path d="M100.015 159.207C99.6659 159.207 99.331 159.346 99.084 159.593C98.837 159.84 98.6982 160.175 98.6982 160.524C98.6982 160.873 98.837 161.208 99.084 161.455C99.331 161.701 99.6659 161.84 100.015 161.84H162.103C162.451 161.839 162.786 161.7 163.032 161.453C163.278 161.207 163.417 160.872 163.417 160.524C163.417 160.175 163.278 159.841 163.032 159.594C162.786 159.347 162.451 159.208 162.103 159.207H100.015Z" fill="#E6E6E6"/>
<path d="M100.015 167.106C99.6661 167.105 99.3312 167.243 99.084 167.49C98.8368 167.736 98.6975 168.07 98.6968 168.419C98.696 168.768 98.8339 169.103 99.0801 169.35C99.3262 169.598 99.6606 169.737 100.01 169.738H126.732C127.081 169.738 127.416 169.6 127.663 169.353C127.91 169.106 128.049 168.771 128.049 168.422C128.049 168.073 127.91 167.738 127.663 167.491C127.416 167.244 127.081 167.106 126.732 167.106H100.015Z" fill="#E6E6E6"/>
<path d="M75.7043 179.733C74.7025 179.733 73.8872 180.323 73.8872 181.049C73.8872 181.775 74.7025 182.365 75.7043 182.365H161.366C162.368 182.365 163.183 181.775 163.183 181.049C163.183 180.323 162.368 179.733 161.366 179.733H75.7043Z" fill="#E6E6E6"/>
<path d="M75.7043 187.631C74.7025 187.631 73.8872 188.221 73.8872 188.947C73.8872 189.673 74.7025 190.264 75.7043 190.264H161.366C162.368 190.264 163.183 189.673 163.183 188.947C163.183 188.221 162.368 187.631 161.366 187.631H75.7043Z" fill="#E6E6E6"/>
<path d="M82.5412 88.6087C86.9054 88.6087 90.4432 85.0726 90.4432 80.7105C90.4432 76.3484 86.9054 72.8123 82.5412 72.8123C78.177 72.8123 74.6392 76.3484 74.6392 80.7105C74.6392 85.0726 78.177 88.6087 82.5412 88.6087Z" fill="#E6E6E6"/>
<path d="M100.791 75.445C100.442 75.4458 100.108 75.5849 99.8617 75.8317C99.6154 76.0784 99.4771 76.4128 99.4771 76.7614C99.4771 77.11 99.6154 77.4443 99.8617 77.6911C100.108 77.9379 100.442 78.0769 100.791 78.0777H162.878C163.051 78.0783 163.223 78.0447 163.383 77.979C163.543 77.9133 163.689 77.8166 163.811 77.6946C163.934 77.5726 164.031 77.4277 164.098 77.268C164.165 77.1084 164.199 76.9371 164.199 76.7642C164.2 76.5912 164.166 76.4198 164.1 76.2599C164.034 76.0999 163.937 75.9546 163.815 75.8321C163.693 75.7095 163.548 75.6123 163.388 75.5459C163.228 75.4795 163.057 75.4452 162.884 75.445C162.882 75.445 162.88 75.445 162.878 75.445H100.791Z" fill="#E6E6E6"/>
<path d="M100.791 83.3433C100.442 83.3438 100.108 83.4828 99.8615 83.7296C99.615 83.9764 99.4766 84.3109 99.4766 84.6596C99.4766 85.0084 99.615 85.3429 99.8615 85.5897C100.108 85.8365 100.442 85.9754 100.791 85.976H127.508C127.857 85.9767 128.192 85.8388 128.44 85.5924C128.687 85.3461 128.827 85.0115 128.828 84.6624C128.828 84.3133 128.69 83.9782 128.444 83.7308C128.197 83.4834 127.863 83.344 127.513 83.3433C127.511 83.3433 127.51 83.3433 127.508 83.3433H100.791Z" fill="#E6E6E6"/>
<path d="M112.781 136.967H69.106L79.3841 119.173C79.5683 118.854 79.8332 118.589 80.1523 118.405C80.4714 118.221 80.8333 118.124 81.2018 118.124C81.5702 118.124 81.9321 118.221 82.2512 118.405C82.5703 118.589 82.8352 118.854 83.0194 119.173L87.4101 126.774L94.8758 113.85C95.1064 113.45 95.4381 113.119 95.8376 112.888C96.2371 112.658 96.6902 112.536 97.1515 112.536C97.6128 112.536 98.066 112.658 98.4655 112.888C98.8649 113.119 99.1966 113.45 99.4273 113.85L112.781 136.967ZM70.4498 136.191H111.437L98.7552 114.237C98.5927 113.956 98.359 113.722 98.0775 113.56C97.796 113.397 97.4766 113.312 97.1516 113.312C96.8265 113.312 96.5072 113.397 96.2257 113.56C95.9442 113.722 95.7104 113.956 95.548 114.237L87.4101 128.325L82.3473 119.561C82.2313 119.36 82.0643 119.193 81.8632 119.077C81.6621 118.961 81.434 118.9 81.2018 118.9C80.9696 118.9 80.7414 118.961 80.5404 119.077C80.3393 119.193 80.1723 119.36 80.0562 119.561L70.4498 136.191Z" fill="#E6E6E6"/>
<path d="M168.649 136.967H124.975L135.253 119.173C135.437 118.854 135.702 118.589 136.021 118.405C136.34 118.221 136.702 118.124 137.07 118.124C137.439 118.124 137.801 118.221 138.12 118.405C138.439 118.589 138.704 118.854 138.888 119.173L143.279 126.774L150.744 113.85C150.975 113.45 151.307 113.119 151.706 112.888C152.106 112.658 152.559 112.536 153.02 112.536C153.481 112.536 153.935 112.658 154.334 112.888C154.734 113.119 155.065 113.45 155.296 113.85L168.649 136.967ZM126.319 136.191H167.305L154.624 114.237C154.461 113.956 154.228 113.722 153.946 113.56C153.665 113.397 153.345 113.312 153.02 113.312C152.695 113.312 152.376 113.397 152.094 113.56C151.813 113.722 151.579 113.956 151.417 114.237L143.279 128.325L138.216 119.561C138.1 119.36 137.933 119.193 137.732 119.077C137.531 118.961 137.303 118.9 137.07 118.9C136.838 118.9 136.61 118.961 136.409 119.077C136.208 119.193 136.041 119.36 135.925 119.561L126.319 136.191Z" fill="#E6E6E6"/>
<path d="M112.822 136.962H66.2646C65.7503 136.962 65.2572 136.757 64.8935 136.394C64.5299 136.03 64.3253 135.537 64.3247 135.023V109.051C64.3253 108.537 64.5299 108.044 64.8936 107.681C65.2572 107.317 65.7503 107.113 66.2646 107.112H112.822C113.336 107.113 113.829 107.317 114.193 107.681C114.556 108.044 114.761 108.537 114.762 109.051V135.023C114.761 135.537 114.556 136.03 114.193 136.394C113.829 136.757 113.336 136.962 112.822 136.962V136.962ZM66.2646 107.888C65.956 107.888 65.6601 108.011 65.4419 108.229C65.2237 108.447 65.101 108.742 65.1006 109.051V135.023C65.101 135.332 65.2237 135.627 65.4419 135.846C65.6601 136.064 65.956 136.186 66.2646 136.187H112.822C113.13 136.186 113.426 136.064 113.644 135.846C113.863 135.627 113.985 135.332 113.986 135.023V109.051C113.985 108.742 113.863 108.447 113.644 108.229C113.426 108.01 113.13 107.888 112.822 107.887L66.2646 107.888Z" fill="#E6E6E6"/>
<path d="M76.1854 219.87C76.0123 219.87 75.8408 219.904 75.6807 219.97C75.5207 220.036 75.3753 220.133 75.2527 220.255C75.1302 220.377 75.033 220.522 74.9667 220.682C74.9004 220.842 74.8662 221.013 74.8662 221.187C74.8662 221.36 74.9004 221.531 74.9667 221.691C75.033 221.851 75.1302 221.996 75.2527 222.118C75.3753 222.24 75.5207 222.337 75.6807 222.403C75.8408 222.469 76.0123 222.503 76.1854 222.503H102.902C103.075 222.503 103.246 222.469 103.406 222.403C103.567 222.337 103.712 222.24 103.834 222.118C103.957 221.996 104.054 221.851 104.121 221.691C104.187 221.531 104.221 221.36 104.221 221.187C104.221 221.013 104.187 220.842 104.121 220.682C104.054 220.522 103.957 220.377 103.834 220.255C103.712 220.133 103.567 220.036 103.406 219.97C103.246 219.904 103.075 219.87 102.902 219.87H76.1854Z" fill="#E6E6E6"/>
<path d="M76.1852 227.626C75.8359 227.626 75.5009 227.765 75.2539 228.012C75.0069 228.258 74.8682 228.593 74.8682 228.942C74.8682 229.291 75.0069 229.626 75.2539 229.873C75.5009 230.12 75.8359 230.259 76.1852 230.259H102.902C103.251 230.259 103.586 230.12 103.833 229.873C104.08 229.626 104.219 229.291 104.219 228.942C104.219 228.593 104.08 228.258 103.833 228.012C103.586 227.765 103.251 227.626 102.902 227.626H76.1852Z" fill="#E6E6E6"/>
<path d="M89.5438 252.224C87.9042 252.224 86.3015 251.738 84.9382 250.827C83.5749 249.917 82.5124 248.623 81.8849 247.109C81.2575 245.595 81.0933 243.929 81.4132 242.321C81.7331 240.714 82.5226 239.238 83.682 238.079C84.8414 236.92 86.3185 236.131 87.9266 235.811C89.5347 235.491 91.2015 235.656 92.7163 236.283C94.2311 236.91 95.5258 237.972 96.4367 239.335C97.3476 240.697 97.8338 242.299 97.8338 243.938C97.8313 246.135 96.9571 248.241 95.403 249.794C93.8488 251.348 91.7417 252.221 89.5438 252.224V252.224ZM89.5438 236.428C88.0577 236.428 86.605 236.868 85.3693 237.693C84.1336 238.519 83.1705 239.691 82.6018 241.064C82.0331 242.436 81.8843 243.946 82.1742 245.403C82.4642 246.86 83.1798 248.198 84.2307 249.249C85.2815 250.299 86.6204 251.014 88.078 251.304C89.5355 251.594 91.0463 251.445 92.4193 250.877C93.7923 250.308 94.9659 249.346 95.7915 248.11C96.6172 246.875 97.0578 245.423 97.0578 243.938C97.0555 241.947 96.2631 240.038 94.8545 238.63C93.4458 237.222 91.536 236.43 89.5438 236.428V236.428Z" fill="#E6E6E6"/>
<path d="M160.322 252.224C160.495 252.224 160.666 252.19 160.826 252.124C160.986 252.058 161.132 251.961 161.254 251.839C161.377 251.717 161.474 251.572 161.54 251.412C161.607 251.252 161.641 251.081 161.641 250.907C161.641 250.734 161.607 250.563 161.54 250.403C161.474 250.243 161.377 250.098 161.254 249.976C161.132 249.854 160.986 249.757 160.826 249.691C160.666 249.625 160.495 249.591 160.322 249.591H133.605C133.256 249.592 132.922 249.731 132.675 249.977C132.429 250.224 132.291 250.559 132.291 250.907C132.291 251.256 132.429 251.591 132.675 251.838C132.922 252.084 133.256 252.223 133.605 252.224H160.322Z" fill="#E6E6E6"/>
<path d="M160.322 244.468C160.495 244.468 160.667 244.435 160.827 244.369C160.987 244.303 161.132 244.206 161.255 244.083C161.377 243.961 161.474 243.816 161.541 243.656C161.607 243.496 161.641 243.325 161.641 243.152C161.641 242.979 161.607 242.807 161.541 242.647C161.474 242.488 161.377 242.342 161.255 242.22C161.132 242.098 160.987 242.001 160.827 241.935C160.667 241.869 160.495 241.835 160.322 241.835H133.606C133.256 241.835 132.921 241.974 132.674 242.221C132.427 242.468 132.289 242.803 132.289 243.152C132.289 243.501 132.427 243.836 132.674 244.083C132.921 244.329 133.256 244.468 133.606 244.468H160.322Z" fill="#E6E6E6"/>
<path d="M146.964 219.87C148.603 219.87 150.206 220.356 151.569 221.267C152.933 222.177 153.995 223.471 154.623 224.985C155.25 226.499 155.414 228.165 155.094 229.773C154.775 231.38 153.985 232.856 152.826 234.015C151.666 235.174 150.189 235.963 148.581 236.283C146.973 236.603 145.306 236.438 143.791 235.811C142.277 235.184 140.982 234.122 140.071 232.76C139.16 231.397 138.674 229.795 138.674 228.156V228.156C138.676 225.959 139.551 223.853 141.105 222.3C142.659 220.746 144.766 219.873 146.964 219.87V219.87ZM146.964 235.666C148.45 235.666 149.903 235.226 151.138 234.401C152.374 233.575 153.337 232.403 153.906 231.03C154.475 229.658 154.623 228.148 154.333 226.691C154.043 225.234 153.328 223.896 152.277 222.845C151.226 221.795 149.887 221.08 148.43 220.79C146.972 220.5 145.461 220.649 144.088 221.217C142.715 221.786 141.542 222.748 140.716 223.984C139.891 225.219 139.45 226.671 139.45 228.156V228.156C139.452 230.147 140.245 232.056 141.653 233.464C143.062 234.872 144.972 235.664 146.964 235.666V235.666Z" fill="#E6E6E6"/>
<path opacity="0.3" d="M134.264 114.628C145.102 114.628 153.887 105.847 153.887 95.0144C153.887 84.1821 145.102 75.4008 134.264 75.4008C123.427 75.4008 114.641 84.1821 114.641 95.0144C114.641 105.847 123.427 114.628 134.264 114.628Z" fill="#6C63FF"/>
<path opacity="0.3" d="M134.264 108.09C141.489 108.09 147.346 102.236 147.346 95.0144C147.346 87.7929 141.489 81.9387 134.264 81.9387C127.039 81.9387 121.182 87.7929 121.182 95.0144C121.182 102.236 127.039 108.09 134.264 108.09Z" fill="#6C63FF"/>
<path d="M134.264 104.095C139.282 104.095 143.349 100.029 143.349 95.0144C143.349 89.9994 139.282 85.934 134.264 85.934C129.247 85.934 125.18 89.9994 125.18 95.0144C125.18 100.029 129.247 104.095 134.264 104.095Z" fill="#6C63FF"/>
<path opacity="0.3" d="M89.5675 242.088C97.5795 242.088 104.074 235.596 104.074 227.588C104.074 219.58 97.5795 213.088 89.5675 213.088C81.5555 213.088 75.0605 219.58 75.0605 227.588C75.0605 235.596 81.5555 242.088 89.5675 242.088Z" fill="#6C63FF"/>
<path opacity="0.3" d="M89.5673 237.255C94.9086 237.255 99.2386 232.927 99.2386 227.588C99.2386 222.249 94.9086 217.921 89.5673 217.921C84.226 217.921 79.896 222.249 79.896 227.588C79.896 232.927 84.226 237.255 89.5673 237.255Z" fill="#6C63FF"/>
<path d="M89.5677 234.301C93.277 234.301 96.2839 231.295 96.2839 227.588C96.2839 223.88 93.277 220.875 89.5677 220.875C85.8585 220.875 82.8516 223.88 82.8516 227.588C82.8516 231.295 85.8585 234.301 89.5677 234.301Z" fill="#6C63FF"/>
<path opacity="0.3" d="M149.89 187.605C159.106 187.605 166.577 180.138 166.577 170.926C166.577 161.715 159.106 154.247 149.89 154.247C140.674 154.247 133.203 161.715 133.203 170.926C133.203 180.138 140.674 187.605 149.89 187.605Z" fill="#6C63FF"/>
<path opacity="0.3" d="M149.89 182.046C156.034 182.046 161.015 177.068 161.015 170.926C161.015 164.785 156.034 159.807 149.89 159.807C143.746 159.807 138.765 164.785 138.765 170.926C138.765 177.068 143.746 182.046 149.89 182.046Z" fill="#6C63FF"/>
<path d="M149.89 178.648C154.157 178.648 157.616 175.191 157.616 170.926C157.616 166.662 154.157 163.204 149.89 163.204C145.623 163.204 142.165 166.662 142.165 170.926C142.165 175.191 145.623 178.648 149.89 178.648Z" fill="#6C63FF"/>
<path d="M227.46 196.824L224.027 202.62C223.687 203.193 223.22 203.681 222.661 204.044C222.102 204.407 221.467 204.636 220.805 204.714C220.143 204.791 219.472 204.715 218.844 204.491C218.217 204.267 217.649 203.901 217.186 203.421V203.421C216.755 202.975 216.425 202.442 216.219 201.857C216.012 201.273 215.933 200.651 215.988 200.033C216.043 199.416 216.23 198.817 216.536 198.278C216.843 197.739 217.261 197.272 217.764 196.909L223.348 192.873C228.709 185.619 231.79 173.291 234.415 159.948L245.324 161.227C242.512 172.14 235.788 184.239 227.46 196.824Z" fill="#FFB8B8"/>
<path d="M228.811 163.84L246.551 168.868V137.904L244.196 138.665C242.139 139.331 240.27 140.476 238.743 142.006C237.216 143.536 236.075 145.407 235.415 147.465L228.811 163.84Z" fill="#E6E6E6"/>
<path d="M265.086 274.728L258.466 274.463C256.292 252.102 253.517 231.794 247.875 221.269C242.411 227.118 241.17 245.598 240.256 270.758H233.842C227.099 241.763 225.396 221.205 233.842 201.685H268.263L265.086 274.728Z" fill="#2F2E41"/>
<path d="M240.655 275.242L229.166 281.109C228.858 281.266 228.522 281.358 228.177 281.381C227.832 281.403 227.487 281.354 227.162 281.237C226.837 281.121 226.539 280.939 226.287 280.703C226.034 280.467 225.833 280.182 225.696 279.866V279.866C225.451 279.304 225.419 278.672 225.606 278.088C225.792 277.505 226.185 277.008 226.71 276.692L228.276 275.748L232.639 269.23L240.074 268.643L241.434 269.946C241.812 270.309 242.099 270.756 242.269 271.252C242.439 271.747 242.488 272.277 242.412 272.795C242.335 273.313 242.136 273.806 241.831 274.232C241.525 274.657 241.122 275.004 240.655 275.242Z" fill="#2F2E41"/>
<path d="M264.004 280.74L251.107 281.102C250.762 281.112 250.418 281.051 250.097 280.923C249.776 280.795 249.485 280.602 249.242 280.357C248.998 280.112 248.808 279.82 248.681 279.499C248.555 279.178 248.496 278.834 248.508 278.489C248.529 277.876 248.771 277.292 249.191 276.845C249.61 276.398 250.178 276.119 250.788 276.059L252.608 275.88L259.35 271.868L266.316 274.532L266.984 276.292C267.17 276.782 267.236 277.309 267.176 277.83C267.116 278.35 266.933 278.849 266.642 279.284C266.35 279.72 265.958 280.079 265.499 280.332C265.04 280.585 264.528 280.725 264.004 280.74V280.74Z" fill="#2F2E41"/>
<path d="M250.891 132.178C255.672 132.178 259.547 128.305 259.547 123.526C259.547 118.748 255.672 114.874 250.891 114.874C246.11 114.874 242.235 118.748 242.235 123.526C242.235 128.305 246.11 132.178 250.891 132.178Z" fill="#FFB8B8"/>
<path d="M265.086 137.375L247.081 144.255C248.13 138.605 248.143 133.283 246.419 128.509L257.937 126.524C256.97 131.487 259.964 134.858 265.086 137.375Z" fill="#FFB8B8"/>
<path d="M272.499 206.713C256.652 209.72 243.892 207.791 233.577 201.949C238.348 185.52 239.026 167.342 237.778 148.341C237.655 146.441 238.125 144.549 239.125 142.929C240.124 141.308 241.603 140.038 243.357 139.294L247.875 137.375C250.311 142.908 255.926 139.719 261.908 135.522L269.301 138.787C270.474 139.305 271.462 140.169 272.131 141.263C272.8 142.358 273.118 143.63 273.043 144.91C271.565 170.151 269.579 197.212 272.499 206.713Z" fill="#E6E6E6"/>
<path d="M277.795 203.008L277.324 209.758C277.238 210.989 276.668 212.135 275.74 212.947C274.811 213.759 273.599 214.171 272.367 214.092V214.092C271.561 214.041 270.781 213.781 270.105 213.338C269.429 212.895 268.879 212.284 268.51 211.565C268.141 210.846 267.965 210.044 267.999 209.237C268.033 208.429 268.276 207.645 268.705 206.96L272.499 200.891C274.742 192.155 272.963 179.572 270.381 166.221L280.972 163.31C282.468 174.48 280.784 188.217 277.795 203.008Z" fill="#FFB8B8"/>
<path d="M260.8 117.905C260.8 117.905 262.418 114.347 258.211 112.729C258.211 112.729 254.651 106.907 247.53 110.788C247.53 110.788 242.676 112.729 242.676 117.905C242.676 123.081 241.058 124.051 241.058 124.051C241.058 124.051 243.467 121.58 244.115 119.639C244.762 117.699 249.796 117.258 251.738 119.199C253.68 121.14 258.534 120.817 258.534 120.817L258.211 127.933C258.211 127.933 259.829 123.728 260.476 123.728C261.124 123.728 261.771 117.905 260.8 117.905Z" fill="#2F2E41"/>
<path d="M284.679 163.575L266.939 168.603V137.639L269.294 138.401C271.351 139.066 273.22 140.211 274.747 141.741C276.274 143.271 277.415 145.142 278.075 147.2L284.679 163.575Z" fill="#E6E6E6"/>
<path d="M351 281.077H130.751V281.803H351V281.077Z" fill="#E6E6E6"/>
<path d="M297.064 222.455C301.879 229.258 303.151 267.977 303.434 280.388C303.441 280.668 303.449 280.933 303.452 281.183H315.64C315.789 280.918 315.928 280.657 316.058 280.388C323.283 266.135 319.274 249.046 319.064 248.182C319.612 250.899 317.13 258.773 314.325 266.401C312.613 242.948 297.98 223.639 297.064 222.455Z" fill="#E6E6E6"/>
</g>
<defs>
<clipPath id="clip0">
<rect width="302" height="235" fill="white" transform="translate(49 47)"/>
</clipPath>
</defs>
</svg>
