<svg width="400" height="300" viewBox="0 0 400 300" fill="none" xmlns="http://www.w3.org/2000/svg">
<path d="M341.381 41H15V220.476H341.381V41Z" fill="#F2F2F2"/>
<path opacity="0.3" d="M300.893 149.51H235.617V205.21H300.893V149.51Z" fill="#0062CC"/>
<path d="M26.9811 53.7902C28.8064 53.7902 30.2862 52.3125 30.2862 50.4895C30.2862 48.6666 28.8064 47.1888 26.9811 47.1888C25.1557 47.1888 23.6759 48.6666 23.6759 50.4895C23.6759 52.3125 25.1557 53.7902 26.9811 53.7902Z" fill="#0062CC"/>
<path d="M36.4833 53.7902C38.3087 53.7902 39.7884 52.3125 39.7884 50.4895C39.7884 48.6666 38.3087 47.1888 36.4833 47.1888C34.6579 47.1888 33.1782 48.6666 33.1782 50.4895C33.1782 52.3125 34.6579 53.7902 36.4833 53.7902Z" fill="#0062CC"/>
<path d="M45.9855 53.7902C47.8109 53.7902 49.2907 52.3125 49.2907 50.4895C49.2907 48.6666 47.8109 47.1888 45.9855 47.1888C44.1602 47.1888 42.6804 48.6666 42.6804 50.4895C42.6804 52.3125 44.1602 53.7902 45.9855 53.7902Z" fill="#0062CC"/>
<path d="M24.7088 59.9791H331.672" stroke="#3F3D56" stroke-width="2" stroke-miterlimit="10"/>
<path d="M331.879 78.958H24.9154V130.531H331.879V78.958Z" fill="#3F3D56"/>
<path d="M253.795 101.238H103.412V108.664H253.795V101.238Z" fill="#0062CC"/>
<path d="M115.806 149.51H50.5301V205.21H115.806V149.51Z" fill="#3F3D56"/>
<path d="M210.828 149.51H145.552V205.21H210.828V149.51Z" fill="#3F3D56"/>
<path d="M314.081 175.518L252.503 153.889L233.997 206.433L295.575 228.062L314.081 175.518Z" fill="#3F3D56"/>
<path d="M265.743 217.528L279.779 177.675" stroke="#0062CC" stroke-width="2" stroke-miterlimit="10"/>
<path d="M279.779 183.65C283.083 183.65 285.761 180.975 285.761 177.675C285.761 174.376 283.083 171.701 279.779 171.701C276.475 171.701 273.797 174.376 273.797 177.675C273.797 180.975 276.475 183.65 279.779 183.65Z" fill="#0062CC"/>
<path d="M271.128 202.238C271.128 202.238 276.421 184.638 259.185 180.846Z" fill="#0062CC"/>
<path d="M82.7562 205.21V162.963" stroke="#0062CC" stroke-width="2" stroke-miterlimit="10"/>
<path d="M82.7562 168.938C86.0601 168.938 88.7385 166.263 88.7385 162.963C88.7385 159.664 86.0601 156.989 82.7562 156.989C79.4523 156.989 76.774 159.664 76.774 162.963C76.774 166.263 79.4523 168.938 82.7562 168.938Z" fill="#0062CC"/>
<path d="M82.7562 189.001C82.7562 189.001 83.6108 170.645 101.13 172.778Z" fill="#0062CC"/>
<path d="M178.36 205.21V162.963" stroke="#0062CC" stroke-width="2" stroke-miterlimit="10"/>
<path d="M178.36 168.938C181.664 168.938 184.342 166.263 184.342 162.963C184.342 159.664 181.664 156.989 178.36 156.989C175.056 156.989 172.378 159.664 172.378 162.963C172.378 166.263 175.056 168.938 178.36 168.938Z" fill="#0062CC"/>
<path d="M178.36 189.001C178.36 189.001 177.506 170.645 159.986 172.778Z" fill="#0062CC"/>
<path d="M178.36 189.001C178.36 189.001 179.215 170.645 196.734 172.778Z" fill="#0062CC"/>
<path d="M331.879 277C361.769 277 386 273.86 386 269.986C386 266.112 361.769 262.972 331.879 262.972C301.988 262.972 277.757 266.112 277.757 269.986C277.757 273.86 301.988 277 331.879 277Z" fill="#3F3D56"/>
<path d="M362.023 106.706L364.191 107.788C364.191 107.788 375.933 137.194 371.958 144.23C367.984 151.266 355.52 164.435 355.52 164.435L353.171 157.76L362.776 136.966L362.023 106.706Z" fill="#575A89"/>
<path opacity="0.1" d="M362.023 106.706L364.191 107.788C364.191 107.788 375.933 137.194 371.958 144.23C367.984 151.266 355.52 164.435 355.52 164.435L353.171 157.76L362.776 136.966L362.023 106.706Z" fill="black"/>
<path d="M359.674 253.735C359.674 253.735 362.745 260.771 361.12 261.312C359.494 261.854 357.507 261.854 355.52 261.854C353.532 261.854 351.184 261.132 350.823 260.41C350.461 259.689 352.268 254.998 352.268 254.998L359.674 253.735Z" fill="#575A89"/>
<path d="M318.306 257.344C318.306 257.344 320.294 263.658 319.39 264.019C318.487 264.379 315.597 266.003 313.971 265.462C312.345 264.921 309.816 263.658 309.274 263.116C308.732 262.575 309.274 259.689 309.274 259.689L311.803 256.081L318.306 257.344Z" fill="#575A89"/>
<path d="M353.894 163.533L356.483 164.435C356.483 164.435 357.145 170.569 356.423 172.734C355.7 174.899 354.074 190.594 354.978 193.841C355.881 197.089 355.339 202.32 355.339 202.32C355.339 202.32 360.758 220 359.674 223.788C358.591 227.577 358.771 232.989 359.855 235.695C360.939 238.401 361.842 239.484 361.3 241.648C360.758 243.813 359.674 244.896 360.758 246.7C361.842 248.504 364.01 249.045 362.926 250.669C361.842 252.292 360.758 253.555 361.12 254.637C361.481 255.72 351.545 257.704 350.642 256.081C350.642 256.081 353.532 253.555 350.642 252.112C347.752 250.669 348.655 245.256 348.655 245.256C348.655 245.256 343.597 224.51 343.778 222.886C343.958 221.263 335.829 196.006 335.829 196.006C335.829 196.006 323.907 232.087 323.184 233.711C322.461 235.334 324.087 239.303 323.184 240.386C322.281 241.468 323.545 244.174 322.281 245.256C321.016 246.339 324.448 250.308 322.281 251.751C320.113 253.194 319.029 257.704 319.21 258.606C319.39 259.508 310.177 258.426 310.177 257.163C310.177 255.9 310.358 254.818 309.455 252.653C308.552 250.488 308.01 249.045 308.732 248.323C309.455 247.602 309.997 246.7 309.274 244.174C308.552 241.648 310.358 233.891 309.816 232.448C309.274 231.005 309.455 221.263 309.455 221.263C309.455 221.263 311.261 207.011 310.719 204.666C310.177 202.32 310.719 201.779 310.9 200.877C311.081 199.975 312.165 190.233 312.887 188.79C313.61 187.347 314.513 162.631 318.668 161.368C322.823 160.106 353.894 163.533 353.894 163.533Z" fill="#2F2E41"/>
<path d="M355.339 260.23C355.339 260.23 361.842 259.147 362.203 260.23C362.565 261.312 363.649 269.791 361.12 269.972C358.591 270.152 354.255 270.693 353.532 269.07C352.81 267.446 349.378 266.364 349.378 266.364C349.378 266.364 344.319 264.92 344.319 263.297C344.319 261.673 344.5 259.147 345.403 258.967C346.307 258.787 349.92 256.802 349.92 256.081C349.92 255.359 355.339 260.23 355.339 260.23Z" fill="#2F2E41"/>
<path d="M314.694 263.116C314.694 263.116 319.39 261.673 320.474 262.575C321.558 263.477 323.003 273.399 320.474 273.219C317.945 273.039 311.261 274.121 310.9 272.678C310.539 271.235 305.661 270.874 305.661 270.874C305.661 270.874 300.423 268.348 300.784 265.642C301.145 262.936 301.687 262.034 303.855 261.854C306.023 261.673 307.648 259.147 307.829 258.967C308.01 258.787 309.602 257.468 309.8 258.939C309.997 260.41 312.345 263.658 314.694 263.116Z" fill="#2F2E41"/>
<path d="M329.507 88.3047C335.592 88.3047 340.526 83.3778 340.526 77.3001C340.526 71.2224 335.592 66.2954 329.507 66.2954C323.421 66.2954 318.487 71.2224 318.487 77.3001C318.487 83.3778 323.421 88.3047 329.507 88.3047Z" fill="#A0616A"/>
<path d="M339.081 79.8257C339.081 79.8257 339.803 91.9128 342.513 92.9952C345.223 94.0777 328.784 94.0777 328.784 94.0777C328.784 94.0777 328.603 86.5007 326.255 84.6967C323.906 82.8926 339.081 79.8257 339.081 79.8257Z" fill="#A0616A"/>
<path d="M343.416 90.2892C343.416 90.2892 332.216 86.1399 328.242 92.6345C328.242 92.6345 315.597 98.5878 314.694 102.196C313.79 105.804 322.281 132.865 322.281 132.865C322.281 132.865 322.281 155.235 320.474 157.58C318.668 159.925 315.236 162.451 317.584 162.992C319.932 163.533 356.784 167.502 356.603 165.157C356.423 162.812 354.074 160.827 356.603 159.384C359.133 157.941 356.965 156.317 358.591 151.627C360.216 146.936 364.191 108.149 364.191 108.149C364.191 108.149 361.481 103.278 360.939 102.737C360.397 102.196 343.416 90.2892 343.416 90.2892Z" fill="#575A89"/>
<path d="M311.081 169.306C311.081 169.306 304.035 185.182 310.177 187.347C316.319 189.511 315.958 170.569 315.958 170.569L311.081 169.306Z" fill="#A0616A"/>
<path d="M334.792 79.3467C334.154 78.0686 333.197 76.5941 331.769 76.6719C331.047 76.7113 330.424 77.16 329.78 77.4895C329.137 77.8189 328.312 78.0231 327.723 77.6033C326.863 76.9892 327.129 75.5326 326.359 74.8081C325.519 74.0172 323.828 74.4588 323.286 73.4405C322.996 72.8968 323.23 72.2222 323.104 71.6194C322.224 71.6944 321.339 71.5917 320.5 71.3173C319.685 70.9872 318.978 70.2222 319.001 69.3437C319.026 69.0444 319.11 68.7529 319.248 68.4864C319.387 68.2199 319.577 67.9837 319.808 67.7917C320.919 66.7833 322.525 66.5899 323.896 65.9783C324.986 65.4916 325.934 64.7331 327.006 64.2067C328.851 63.3006 330.979 63.1249 333.029 63.2813C336.137 63.5185 339.28 64.5485 341.533 66.6989C343.787 68.8493 344.98 72.2417 344.008 75.1993C343.457 76.8752 342.29 78.2839 341.638 79.9235C341.239 81.0455 340.962 82.2072 340.813 83.3886L340.356 86.1906C340.427 85.7545 339.468 84.6607 339.154 84.4005C338.468 83.8328 337.47 84.0254 336.833 83.4996C335.891 82.7218 335.346 80.4556 334.792 79.3467Z" fill="#2F2E41"/>
<path opacity="0.1" d="M318.848 100.933L315.958 102.737C315.958 102.737 311.261 131.061 311.803 135.029C312.345 138.998 309.635 161.368 310.539 163.172C311.442 164.976 311.803 165.337 311.803 166.42C311.803 167.502 309.274 171.471 310.9 172.193C312.526 172.914 318.487 174.177 318.487 172.193C318.487 170.208 317.403 167.502 319.39 166.239C321.377 164.976 322.823 156.858 322.823 156.858C322.823 156.858 323.726 148.56 324.629 146.936C325.532 145.312 326.797 139.359 326.797 136.833C326.797 134.308 328.965 124.025 327.7 118.793C326.436 113.561 326.074 99.4898 318.848 100.933Z" fill="black"/>
<path d="M317.584 100.392L314.694 102.196C314.694 102.196 309.997 130.519 310.539 134.488C311.081 138.457 308.371 160.827 309.274 162.631C310.177 164.435 310.539 164.796 310.539 165.879C310.539 166.961 308.01 170.93 309.635 171.651C311.261 172.373 317.223 173.636 317.223 171.651C317.223 169.667 316.139 166.961 318.126 165.698C320.113 164.435 321.558 156.317 321.558 156.317C321.558 156.317 322.461 148.019 323.365 146.395C324.268 144.771 325.532 138.818 325.532 136.292C325.532 133.767 327.7 123.484 326.436 118.252C325.171 113.02 324.81 98.9486 317.584 100.392Z" fill="#575A89"/>
</svg>
