<svg width="400" height="300" viewBox="0 0 400 300" fill="none" xmlns="http://www.w3.org/2000/svg">
<g clip-path="url(#clip0)">
<path opacity="0.1" d="M358.325 207.359C357.908 208.257 357.493 209.143 357.078 210.017C356.432 211.374 355.794 212.705 355.164 214.01C354.884 214.588 354.604 215.155 354.331 215.723C351.242 222.032 348.358 227.612 345.909 232.201C343.686 236.36 340.386 239.844 336.354 242.289C332.322 244.734 327.706 246.05 322.991 246.099L268.524 246.691H267.949L263.28 246.741L259.287 246.784L247.039 246.917H246.544L240.309 246.985H240.118L201.688 247.402L167.385 247.761L163.394 247.804L138.612 248.074H138.584L122.511 248.246H122.339L71.5179 248.795L56.3147 248.96C53.0703 248.997 49.8396 248.534 46.7359 247.589C41.3349 245.958 36.481 242.885 32.6963 238.701C26.1668 231.508 21.408 223.116 18.2114 214.01C17.7493 212.695 17.3183 211.364 16.9185 210.017C5.85277 172.617 19.3428 124.365 43.622 92.0752C44.6396 90.725 45.674 89.4083 46.7251 88.1251L46.7503 88.0964C54.2172 78.9323 62.5892 71.2764 71.5071 65.8325C87.3102 56.1692 104.819 53.4473 122.041 61.5593C136.612 68.4252 150.217 71.6534 163.405 72.5296C164.738 72.6158 166.07 72.6805 167.396 72.72C197.648 73.6716 226 62.773 259.294 55.7383C260.619 55.4582 261.948 55.1817 263.288 54.9196C287.039 50.1939 313.387 47.7018 344.72 52.941C347.975 53.4727 351.187 54.2408 354.331 55.2392C355.712 55.6845 357.044 56.1633 358.325 56.6756C373.28 62.7586 381.437 73.9983 384.903 88.0821C385.231 89.3892 385.514 90.719 385.754 92.0716C391.899 125.949 373.901 174.003 358.325 207.359Z" fill="#6C63FF"/>
<g opacity="0.1">
<path opacity="0.1" d="M71.5071 65.8326V248.835L56.3039 249C53.0595 249.037 49.8288 248.574 46.7251 247.628V88.0965H46.7502C54.2172 78.9216 62.5892 71.2657 71.5071 65.8326Z" fill="#6C63FF"/>
<path opacity="0.1" d="M385.772 92.0753H43.6221C44.6397 90.7251 45.6741 89.4084 46.7252 88.1252V88.0965H384.921C385.249 89.3964 385.532 90.7227 385.772 92.0753Z" fill="#6C63FF"/>
<path opacity="0.1" d="M358.324 56.6792V210.013H357.078C356.432 211.37 355.794 212.701 355.164 214.006C354.884 214.584 354.604 215.152 354.331 215.719V55.2285C355.712 55.6737 357.043 56.1573 358.324 56.6792Z" fill="#6C63FF"/>
<path opacity="0.1" d="M263.288 54.9089V246.756L259.294 246.799V55.7276C260.619 55.4475 261.948 55.171 263.288 54.9089Z" fill="#6C63FF"/>
<path opacity="0.1" d="M167.396 72.7092V247.797L163.405 247.84V72.5189C164.738 72.6051 166.07 72.6554 167.396 72.7092Z" fill="#6C63FF"/>
<path opacity="0.1" d="M357.078 210.017C356.432 211.374 355.794 212.705 355.164 214.01H18.2114C17.7493 212.695 17.3183 211.364 16.9185 210.017H357.078Z" fill="#6C63FF"/>
</g>
<path d="M95.8221 145.458H88.998V166.164H95.8221V145.458Z" fill="#3F3D56"/>
<path d="M279.471 144.381H272.647V166.286H279.471V144.381Z" fill="#3F3D56"/>
<path d="M322.991 241.631V246.3L268.427 246.802L267.845 246.813L247.108 247.003L246.612 247.011L240.309 247.064H240.122L201.699 247.42L138.627 248.005H138.573L122.537 248.156L122.364 248.16L51.1069 248.813V243.427L67.8617 233.372L101.479 233.092L102.197 233.088L102.434 233.085L103.153 233.074L119.293 232.941L120.015 232.938L120.245 232.934L120.963 232.93L126.139 232.887L126.275 232.884L139.044 232.776H139.148L238.779 231.936L241.217 231.918H241.462L243.322 231.9L256.844 231.789L257.563 231.778L258.227 231.771H258.572L262.778 231.738L263.611 231.727L264.728 231.72L268.23 231.688L273.786 231.641L274.504 231.634L275.754 231.627H275.988L302.82 231.397L322.991 241.631Z" fill="#65617D"/>
<path opacity="0.2" d="M322.991 241.631V246.3L268.427 246.802L267.845 246.813L247.108 247.003L246.612 247.011L240.309 247.064H240.122L201.699 247.42L138.627 248.005H138.573L122.537 248.156L122.364 248.16L51.1069 248.813V243.427L67.8617 233.372L101.479 233.092L102.197 233.088L102.434 233.085L103.153 233.074L119.293 232.941L120.015 232.938L120.245 232.934L120.963 232.93L126.139 232.887L126.275 232.884L139.044 232.776H139.148L238.779 231.936L241.217 231.918H241.462L243.322 231.9L256.844 231.789L257.563 231.778L258.227 231.771H258.572L262.778 231.738L263.611 231.727L264.728 231.72L268.23 231.688L273.786 231.641L274.504 231.634L275.754 231.627H275.988L302.82 231.397L322.991 241.631Z" fill="black"/>
<path d="M119.347 223.68V232.474C119.347 232.891 119.229 233.299 119.007 233.651C118.784 234.003 118.466 234.285 118.09 234.464C117.81 234.6 117.503 234.673 117.192 234.679L104.657 234.945C104.322 234.953 103.99 234.883 103.687 234.74C103.305 234.565 102.98 234.283 102.753 233.928C102.525 233.574 102.405 233.161 102.405 232.74V223.68H119.347Z" fill="#3F3D56"/>
<path opacity="0.1" d="M119.347 223.68V232.474C119.347 232.891 119.229 233.299 119.007 233.651C118.784 234.003 118.466 234.285 118.09 234.464C117.81 234.6 117.503 234.673 117.192 234.679L104.657 234.945C104.322 234.953 103.99 234.883 103.687 234.74C103.305 234.565 102.98 234.283 102.753 233.928C102.525 233.574 102.405 233.161 102.405 232.74V223.68H119.347Z" fill="black"/>
<path d="M120.066 223.68V232.474C120.066 232.891 119.948 233.299 119.725 233.651C119.503 234.003 119.185 234.285 118.809 234.464C118.528 234.6 118.222 234.673 117.911 234.679L105.376 234.945C105.041 234.953 104.709 234.883 104.406 234.74C104.023 234.565 103.699 234.283 103.472 233.928C103.244 233.574 103.124 233.161 103.124 232.74V223.68H120.066Z" fill="#3F3D56"/>
<path d="M274.504 223.68H257.562V234.992H274.504V223.68Z" fill="#3F3D56"/>
<path opacity="0.1" d="M274.504 223.68H257.562V234.992H274.504V223.68Z" fill="black"/>
<path d="M273.786 223.68H256.844V234.992H273.786V223.68Z" fill="#3F3D56"/>
<path opacity="0.1" d="M95.8221 145.455V147.512L88.998 147.336V145.455H95.8221Z" fill="black"/>
<path d="M140.739 87.4896L132.539 146.381C132.487 146.757 132.298 147.101 132.009 147.347C131.719 147.593 131.349 147.723 130.969 147.714L65.3151 146.011L64.0688 145.979C63.8518 145.974 63.6384 145.923 63.4423 145.83C63.2463 145.737 63.0721 145.603 62.9311 145.438C62.7902 145.273 62.6856 145.08 62.6241 144.872C62.5627 144.664 62.5459 144.445 62.5747 144.23L71.78 82.5808C71.8393 82.1989 72.0397 81.8532 72.3416 81.6118C72.6435 81.3705 73.0249 81.2511 73.4106 81.2773L139.302 85.7372C139.515 85.7496 139.722 85.8058 139.912 85.9024C140.102 85.999 140.269 86.1339 140.404 86.2986C140.539 86.4633 140.639 86.6541 140.696 86.8591C140.754 87.0641 140.768 87.2788 140.739 87.4896V87.4896Z" fill="#65617D"/>
<path d="M76.1867 85.6079L69.2441 139.95L129.583 141.864L137.003 89.4359L76.1867 85.6079Z" fill="#6C63FF"/>
<path d="M222.728 84.7677H153.047C151.99 84.7677 151.133 85.6246 151.133 86.6817V145.096C151.133 146.153 151.99 147.01 153.047 147.01H222.728C223.785 147.01 224.642 146.153 224.642 145.096V86.6817C224.642 85.6246 223.785 84.7677 222.728 84.7677Z" fill="#65617D"/>
<path d="M221.406 88.9583H154.603V140.787H221.406V88.9583Z" fill="#6C63FF"/>
<path opacity="0.1" d="M279.471 144.377V145.738L272.647 145.878V144.377H279.471Z" fill="black"/>
<path d="M310.262 143.228C310.271 143.377 310.251 143.526 310.202 143.667C310.152 143.808 310.075 143.937 309.974 144.047C309.874 144.157 309.752 144.246 309.616 144.307C309.48 144.369 309.333 144.403 309.184 144.406L241.95 145.796C241.67 145.802 241.399 145.702 241.191 145.516C240.982 145.33 240.852 145.072 240.825 144.794L235.047 84.7246C235.032 84.5755 235.048 84.4252 235.094 84.2826C235.14 84.1399 235.214 84.0081 235.312 83.8949C235.41 83.7818 235.53 83.6897 235.664 83.6243C235.799 83.5589 235.946 83.5215 236.095 83.5144L302.82 80.1964L303.538 80.1605C303.824 80.1454 304.104 80.2419 304.32 80.4295C304.536 80.6171 304.67 80.8811 304.695 81.1659L310.262 143.228Z" fill="#65617D"/>
<path d="M238.886 87.0444L299.825 84.0495L304.972 138.632L244.514 140.068L238.886 87.0444Z" fill="#6C63FF"/>
<path opacity="0.1" d="M310.262 143.228C310.272 143.377 310.251 143.526 310.202 143.667C310.153 143.808 310.075 143.937 309.975 144.047C309.874 144.157 309.752 144.246 309.616 144.307C309.481 144.369 309.334 144.403 309.185 144.406L302.82 80.1964L303.539 80.1605C303.824 80.1454 304.104 80.2419 304.32 80.4295C304.536 80.6171 304.67 80.8811 304.695 81.1659L310.262 143.228Z" fill="black"/>
<path opacity="0.1" d="M73.4213 81.2736L65.3151 146.011L64.0688 145.979C63.8518 145.974 63.6384 145.923 63.4423 145.83C63.2463 145.737 63.0721 145.603 62.9311 145.438C62.7902 145.273 62.6856 145.08 62.6241 144.872C62.5627 144.664 62.5459 144.445 62.5747 144.23L71.78 82.5807C71.8386 82.1962 72.0402 81.848 72.3445 81.6057C72.6488 81.3633 73.0334 81.2447 73.4213 81.2736V81.2736Z" fill="black"/>
<path opacity="0.1" d="M95.8221 160.031H88.998V166.164H95.8221V160.031Z" fill="black"/>
<path opacity="0.1" d="M120.066 223.677V225.461L103.124 225.914V223.677H120.066Z" fill="black"/>
<path d="M149.965 162.167V222.567C149.961 222.936 149.815 223.289 149.558 223.553C149.3 223.817 148.951 223.972 148.583 223.985L79.7496 225.817H79.7317C79.3569 225.812 78.9987 225.661 78.7337 225.396C78.4686 225.131 78.3176 224.773 78.313 224.398V162.167C78.3176 161.792 78.4686 161.434 78.7337 161.169C78.9987 160.904 79.3569 160.753 79.7317 160.749H148.547C148.921 160.753 149.28 160.904 149.545 161.169C149.81 161.434 149.961 161.792 149.965 162.167V162.167Z" fill="#65617D"/>
<path opacity="0.1" d="M79.7496 160.749V225.817H79.7317C79.3569 225.812 78.9987 225.661 78.7337 225.396C78.4686 225.131 78.3176 224.773 78.313 224.398V162.167C78.3176 161.792 78.4686 161.434 78.7337 161.169C78.9987 160.904 79.3569 160.753 79.7317 160.749H79.7496Z" fill="black"/>
<path d="M82.8926 164.605H146.643V217.841L82.8926 219.278V164.605Z" fill="#D4DFEC"/>
<path opacity="0.1" d="M279.471 160.031H272.647V166.286H279.471V160.031Z" fill="black"/>
<path opacity="0.1" d="M273.786 223.677V225.978L256.844 225.526V223.677H273.786Z" fill="black"/>
<path d="M296.143 162.167V224.398C296.139 224.776 295.985 225.137 295.716 225.402C295.447 225.668 295.085 225.817 294.707 225.817V225.817L225.859 223.985C225.491 223.972 225.142 223.817 224.884 223.553C224.627 223.289 224.481 222.936 224.477 222.567V162.167C224.481 161.792 224.632 161.434 224.897 161.169C225.162 160.904 225.52 160.753 225.895 160.749H294.71C295.088 160.75 295.449 160.899 295.717 161.164C295.986 161.43 296.139 161.79 296.143 162.167V162.167Z" fill="#65617D"/>
<path opacity="0.1" d="M296.143 162.167V224.398C296.138 224.776 295.985 225.137 295.716 225.402C295.447 225.668 295.084 225.817 294.707 225.817V225.817V160.749C295.084 160.749 295.447 160.897 295.716 161.163C295.985 161.428 296.138 161.789 296.143 162.167Z" fill="black"/>
<path d="M291.564 164.605H227.813V217.841L291.564 219.278V164.605Z" fill="#D4DFEC"/>
<path d="M222.695 162.167V222.567C222.691 222.936 222.545 223.289 222.288 223.553C222.03 223.817 221.681 223.972 221.313 223.985L152.48 225.817C152.102 225.817 151.739 225.668 151.47 225.402C151.201 225.137 151.048 224.776 151.043 224.398V162.167C151.048 161.792 151.199 161.434 151.464 161.169C151.729 160.904 152.087 160.753 152.462 160.749H221.277C221.651 160.753 222.01 160.904 222.275 161.169C222.54 161.434 222.691 161.792 222.695 162.167V162.167Z" fill="#65617D"/>
<path d="M155.622 164.605H219.373V217.841L155.622 219.278V164.605Z" fill="#D4DFEC"/>
<path opacity="0.1" d="M322.991 241.631V246.3L268.427 246.802L267.845 246.813L247.108 247.003L246.612 247.011L240.309 247.064H240.122L201.699 247.42L138.627 248.005H138.573L122.537 248.156L122.364 248.16L51.1069 248.813V243.427L123.84 242.949H124.013L138.735 242.849H138.803L240.474 242.177H240.578L240.639 242.174H240.808L242.528 242.163H243.053L269.806 241.983L271.387 241.976L271.739 241.972L322.991 241.631Z" fill="black"/>
<path d="M188.004 166.164C198.186 166.164 206.44 157.911 206.44 147.731C206.44 137.552 198.186 129.299 188.004 129.299C177.822 129.299 169.568 137.552 169.568 147.731C169.568 157.911 177.822 166.164 188.004 166.164Z" fill="#FBBEBE"/>
<path d="M206.444 185.437C206.444 185.437 170.707 189.746 174.119 185.437C175.355 183.878 175.696 179.26 175.628 173.999C175.606 172.401 175.549 170.746 175.466 169.098C175.071 161.198 174.119 153.477 174.119 153.477C174.119 153.477 205.366 138.754 201.775 150.425C200.338 155.14 200.808 161.761 201.9 167.977C202.22 169.791 202.59 171.568 202.978 173.256C203.924 177.373 205.081 181.438 206.444 185.437V185.437Z" fill="#FBBEBE"/>
<path opacity="0.1" d="M206.444 185.437C206.444 185.437 170.707 189.746 174.119 185.437C175.355 183.878 175.696 179.26 175.628 173.999C181.076 171.672 188.008 173.407 188.008 173.407C195.306 171.953 199.986 172.236 202.978 173.256C203.924 177.373 205.081 181.438 206.444 185.437V185.437Z" fill="black"/>
<path d="M138.612 248.411V248.109L201.688 247.424L240.118 247.064H240.226L240.186 247.596L240.24 247.064H240.308V247.003L240.8 242.174L240.987 240.346L241.045 239.775L241.095 239.297L243.314 231.896L245.534 224.506L247.402 218.283L250.253 208.774C250.253 208.774 248.637 205.004 247.739 203.926C246.841 202.849 245.943 195.488 245.943 195.488C245.943 195.488 238.279 188.187 234.928 187.347C233.524 186.988 230.751 186.51 227.806 185.911C226.703 185.688 225.572 185.451 224.484 185.192C223.87 185.052 223.266 184.905 222.688 184.758C221.562 184.477 220.453 184.134 219.366 183.731C218.795 183.524 218.253 183.248 217.749 182.908C215.11 180.973 208.494 180.754 208.239 180.754C208.238 180.746 208.238 180.737 208.239 180.729V180.696C208.248 180.546 208.248 180.395 208.239 180.244C208.239 180.1 208.239 179.932 208.207 179.741C208.207 179.684 208.207 179.623 208.181 179.562C208.164 179.432 208.142 179.296 208.11 179.152C208.099 179.088 208.084 179.025 208.067 178.962C207.962 178.529 207.812 178.109 207.618 177.709C207.592 177.651 207.56 177.59 207.531 177.533C207.355 177.201 207.151 176.885 206.921 176.588C206.874 176.527 206.824 176.463 206.77 176.402C206.476 176.055 206.149 175.737 205.793 175.454C205.696 175.378 205.596 175.299 205.491 175.227C205.433 175.18 205.372 175.137 205.308 175.098L204.989 174.89L204.69 174.718C204.428 174.574 204.152 174.434 203.85 174.301C203.757 174.258 203.656 174.218 203.555 174.179C203.455 174.139 203.297 174.078 203.164 174.028H203.142L202.873 173.92C202.668 173.852 202.46 173.791 202.241 173.73L201.907 173.644L201.548 173.561L201.189 173.486C200.829 173.414 200.445 173.349 200.043 173.299L199.633 173.249L199.213 173.206L198.779 173.17L198.161 173.134L197.443 173.109C194.275 173.108 191.115 173.444 188.018 174.111C185.867 173.632 183.663 173.429 181.46 173.507H181.148L180.788 173.529H180.559L180.095 173.572C179.941 173.572 179.783 173.604 179.628 173.626C179.474 173.647 179.312 173.665 179.158 173.69L178.921 173.73C178.687 173.769 178.45 173.813 178.202 173.863C178.123 173.877 178.044 173.895 177.965 173.917C177.653 173.985 177.34 174.068 177.032 174.161C176.877 174.204 176.723 174.254 176.568 174.308C176.489 174.33 176.414 174.358 176.338 174.387L176.109 174.47L175.882 174.56L175.613 174.667C175.476 174.725 175.344 174.786 175.211 174.85C175.135 174.883 175.06 174.919 174.988 174.958C174.916 174.998 174.841 175.03 174.772 175.069C173.96 175.489 173.21 176.018 172.542 176.642L172.359 176.818L172.179 177.001C172.118 177.062 172.061 177.127 172.003 177.192C171.769 177.448 171.551 177.717 171.35 178C171.292 178.075 171.238 178.15 171.184 178.229C170.957 178.566 170.75 178.916 170.567 179.278C170.52 179.364 170.477 179.454 170.434 179.54C170.141 180.147 169.9 180.778 169.715 181.425C169.648 181.665 169.587 181.904 169.532 182.144C169.532 182.144 161.929 185.498 155.622 187.925C153.945 188.571 152.364 189.157 151.043 189.598C150.658 189.728 150.299 189.846 149.965 189.958C149.241 190.219 148.487 190.393 147.721 190.475C147.359 190.481 146.999 190.514 146.643 190.575C143.745 191.046 138.777 193.089 138.235 195.139C138.191 195.303 138.179 195.474 138.199 195.642C138.199 195.642 138.199 195.667 138.199 195.682C138.558 198.195 136.044 197.836 136.044 197.836C136.044 197.836 135.146 204.479 133.889 206.275C132.981 207.568 132.359 210.451 132.28 212.627C132.235 213.305 132.288 213.986 132.438 214.649C132.438 214.667 132.438 214.685 132.438 214.699C132.582 215.18 132.237 216.495 131.652 218.179C131.016 220.028 130.089 222.326 129.199 224.495C127.855 227.77 126.591 230.744 126.512 231.397C126.48 231.688 126.386 232.209 126.257 232.88C125.733 235.617 124.569 240.827 123.994 242.935C123.567 244.508 122.946 246.662 122.518 248.142C122.518 248.185 122.493 248.228 122.482 248.267L138.584 248.109V248.411H138.634H138.612Z" fill="#6C63FF"/>
<path opacity="0.1" d="M144.488 206.084C144.488 206.084 164.96 216.678 172.323 215.421L144.488 206.084Z" fill="black"/>
<path opacity="0.1" d="M186.151 201.775C186.151 201.775 206.084 208.239 212.729 209.137C219.373 210.035 186.151 201.775 186.151 201.775Z" fill="black"/>
<path opacity="0.1" d="M208.261 180.976C197.845 182.894 178.235 182.481 169.759 182.19C172.866 171.058 188.015 174.843 188.015 174.843C206.767 171.101 208.203 178.865 208.261 180.976Z" fill="black"/>
<path d="M208.261 180.258C197.845 182.176 178.235 181.763 169.759 181.472C172.866 170.34 188.015 174.125 188.015 174.125C206.767 170.383 208.203 178.147 208.261 180.258Z" fill="#6C63FF"/>
<path d="M263.55 229.336C263.55 229.336 275.819 227.451 276.059 232.837C276.3 238.224 269.803 241.987 269.803 241.987L263.55 229.336Z" fill="#FBBEBE"/>
<path opacity="0.1" d="M201.9 167.977C201.372 168.213 200.833 168.422 200.284 168.602C196.412 169.938 192.508 171.285 188.432 171.773C184.355 172.261 180.078 171.83 176.522 169.798C176.149 169.587 175.789 169.353 175.445 169.098C175.049 161.198 174.098 153.477 174.098 153.477C174.098 153.477 205.345 138.754 201.753 150.425C200.323 155.14 200.808 161.761 201.9 167.977Z" fill="black"/>
<path d="M182.947 118.921C182.435 119.057 181.898 119.07 181.379 118.961C180.86 118.852 180.374 118.623 179.959 118.293L180.706 119.331C180.266 119.381 179.82 119.335 179.399 119.196C178.979 119.056 178.594 118.827 178.271 118.523C178.203 119.452 178.242 120.385 178.386 121.306C177.15 121.365 175.933 120.983 174.953 120.228C174.933 120.552 175.014 120.874 175.184 121.151C175.353 121.428 175.603 121.646 175.901 121.776C174.659 121.628 173.406 121.936 172.375 122.644C171.344 123.352 170.606 124.41 170.298 125.622L172.173 125.794C170.699 126.109 169.377 126.916 168.423 128.082C167.848 128.8 167.41 129.719 167.662 130.595C167.913 131.472 169.127 132.032 169.788 131.407C168.848 132.529 168.165 133.843 167.786 135.256C167.408 136.67 167.343 138.149 167.597 139.591C167.767 140.205 167.823 140.845 167.762 141.48C167.644 142.072 167.27 142.586 167.083 143.164C166.724 144.212 167.065 145.351 167.385 146.396L169.07 151.933C169.68 153.933 170.287 155.937 171.084 157.872C171.649 159.096 172.129 160.357 172.521 161.646C172.974 163.384 172.992 165.288 173.958 166.807C174.62 167.763 175.505 168.543 176.536 169.08C180.089 171.112 184.38 171.543 188.446 171.055C192.512 170.566 196.412 169.22 200.28 167.884C201.14 167.625 201.965 167.263 202.737 166.807C205.413 165.054 206.009 161.47 206.508 158.314C207.065 154.795 207.808 151.283 209.127 147.972C209.91 146.001 210.922 144 210.75 141.889C210.531 139.084 208.311 136.811 207.762 134.054C207.578 133.132 207.586 132.182 207.787 131.263C207.957 130.716 208.053 130.148 208.071 129.576C208.01 128.419 207.061 127.529 206.171 126.785C204.238 125.172 202.244 123.647 200.187 122.211C200.083 121.492 201.06 121.184 201.502 120.616C202.127 119.815 201.48 118.544 200.532 118.171C199.584 117.797 198.521 118.041 197.533 118.289C197.597 117.784 197.497 117.271 197.246 116.827C196.996 116.384 196.609 116.032 196.143 115.826C195.677 115.62 195.156 115.57 194.659 115.683C194.163 115.796 193.715 116.067 193.385 116.454C193.122 115.853 192.703 115.333 192.171 114.949C191.639 114.565 191.014 114.331 190.36 114.271C187.979 114.084 187.933 115.905 186.41 116.907C184.887 117.909 183.63 116.587 182.459 115.625C182.244 116.169 182.176 116.76 182.261 117.338C182.347 117.917 182.584 118.463 182.947 118.921V118.921Z" fill="#3F3D56"/>
<path d="M272.647 240.109C272.647 240.109 272.327 240.87 271.738 241.973C270.847 243.669 269.763 245.256 268.506 246.702L268.409 246.806H267.827L247.089 246.996H246.593L246.532 246.924L242.51 242.152L240.994 240.353L240.933 240.278L240.804 240.127L240.732 240.041L240.639 239.929L237.69 236.432L238.767 231.943L240.603 224.38L240.649 224.197L241.009 222.761L241.264 221.684L242.118 218.172L245.049 206.088L250.257 208.781L255.748 218.477L258.697 223.684H260.313C260.619 223.684 261.319 224.273 262.023 224.951C262.274 225.192 262.526 225.447 262.741 225.67C263.381 226.33 263.887 226.898 263.887 226.898C263.887 226.898 266.505 226.955 267.209 229.016C267.246 229.116 267.276 229.218 267.299 229.322C267.533 230.132 267.837 230.92 268.208 231.677C268.671 232.686 269.253 233.832 269.842 234.977C270.937 237.078 272.051 239.078 272.46 239.804L272.51 239.893L272.647 240.109Z" fill="#6C63FF"/>
<path opacity="0.1" d="M241.796 223.896L241.76 224.409V224.445L241.699 225.271L241.221 231.918L240.643 239.926L240.478 242.181L240.118 247.007V247.068L201.688 247.427L138.624 248.109V248.411H138.573V248.109V248.009L138.735 242.852L139.044 232.776L139.31 224.233L139.335 223.382C139.35 222.868 139.471 222.363 139.688 221.898C139.906 221.432 140.216 221.016 140.6 220.674C140.984 220.332 141.433 220.072 141.921 219.91C142.408 219.748 142.924 219.686 143.436 219.73C145.132 219.874 147.333 220.05 149.966 220.236L151.043 220.315C166.246 221.371 194.344 222.736 222.696 221.034C223.292 221.001 223.892 220.965 224.491 220.922C228.888 220.646 233.28 220.29 237.629 219.845C238.179 219.787 238.735 219.851 239.258 220.031C239.78 220.212 240.257 220.505 240.654 220.889C241.051 221.273 241.359 221.74 241.557 222.257C241.754 222.773 241.835 223.326 241.796 223.878V223.896Z" fill="black"/>
<path d="M138.612 248.411V248.109L201.688 247.424L240.118 247.064H240.226V247.003L240.585 242.177L240.739 240.023L241.328 231.903L241.792 225.476V225.318C241.813 225.021 241.8 224.724 241.752 224.431C241.754 224.419 241.754 224.407 241.752 224.395C241.653 223.789 241.407 223.216 241.034 222.729C240.638 222.221 240.12 221.824 239.528 221.572C238.936 221.321 238.29 221.225 237.651 221.292C233.301 221.737 228.909 222.093 224.512 222.369C223.913 222.413 223.313 222.448 222.717 222.481C194.365 224.165 166.268 222.8 151.064 221.763L149.987 221.684C147.354 221.497 145.153 221.324 143.457 221.177C142.525 221.099 141.596 221.368 140.851 221.934C140.105 222.499 139.596 223.321 139.42 224.24C139.384 224.435 139.363 224.632 139.356 224.829L139.112 232.787L138.778 242.867L138.619 248.023V248.124V248.425L138.612 248.411Z" fill="#3F3D56"/>
<path opacity="0.1" d="M241.903 226.413L241.461 231.918L240.804 240.123L240.639 242.177L240.28 246.777L240.258 247.007V247.068L240.204 247.599L240.244 247.068H240.14L201.709 247.427L138.623 248.109V248.009L138.799 242.852L139.158 232.776L139.388 226.079C139.399 225.698 139.506 225.326 139.698 224.996C139.89 224.667 140.161 224.391 140.487 224.194C140.894 223.944 141.369 223.831 141.845 223.87C142.599 223.931 143.526 224.003 144.607 224.082C146.363 224.212 148.529 224.362 151.05 224.52C155.719 224.815 161.577 225.131 168.29 225.389C186.966 226.108 212.179 226.348 236.128 224.251C237.205 224.158 238.319 224.054 239.407 223.949C239.838 223.906 240.272 223.989 240.657 224.186C240.766 224.241 240.869 224.306 240.966 224.38C241.278 224.607 241.526 224.911 241.684 225.264C241.721 225.334 241.751 225.407 241.774 225.483C241.882 225.78 241.926 226.097 241.903 226.413V226.413Z" fill="black"/>
<path opacity="0.1" d="M120.066 231.329V232.474C120.066 232.891 119.948 233.299 119.725 233.651C119.503 234.003 119.185 234.285 118.809 234.464L104.406 234.74C104.023 234.565 103.699 234.283 103.472 233.928C103.244 233.574 103.124 233.161 103.124 232.74V231.663L120.066 231.329Z" fill="black"/>
<path d="M120.245 235.139L101.479 235.498V232.385L120.245 232.026V235.139Z" fill="#3F3D56"/>
<path opacity="0.1" d="M120.245 235.139L101.479 235.498V232.385L120.245 232.026V235.139Z" fill="black"/>
<path d="M120.963 235.139L102.197 235.498V232.385L120.963 232.026V235.139Z" fill="#3F3D56"/>
<g opacity="0.1">
<path opacity="0.1" d="M183.094 117.743C182.743 117.287 182.51 116.752 182.415 116.185C182.329 116.74 182.381 117.307 182.566 117.837C182.744 117.82 182.921 117.789 183.094 117.743Z" fill="black"/>
<path opacity="0.1" d="M178.533 120.128C178.465 119.687 178.421 119.244 178.4 118.799C178.4 119.241 178.4 119.686 178.4 120.131L178.533 120.128Z" fill="black"/>
<path opacity="0.1" d="M207.804 132.111C207.824 131.791 207.868 131.473 207.934 131.159C208.104 130.613 208.2 130.047 208.221 129.475C208.213 129.347 208.194 129.219 208.164 129.094C208.103 129.425 208.006 129.755 207.934 130.082C207.79 130.748 207.747 131.432 207.804 132.111Z" fill="black"/>
<path opacity="0.1" d="M200.334 121.015L200.725 121.298C201.055 121.06 201.364 120.793 201.648 120.501C201.784 120.314 201.867 120.095 201.891 119.866C201.915 119.636 201.879 119.405 201.785 119.194C201.749 119.276 201.703 119.353 201.648 119.424C201.207 119.991 200.23 120.304 200.334 121.015Z" fill="black"/>
<path opacity="0.1" d="M170.822 124.469C170.691 124.731 170.586 125.005 170.509 125.288C171.071 124.974 171.676 124.746 172.305 124.609L170.822 124.469Z" fill="black"/>
<path opacity="0.1" d="M175.775 120.562C175.539 120.432 175.313 120.285 175.099 120.121C175.09 120.263 175.101 120.405 175.132 120.544C175.346 120.534 175.561 120.54 175.775 120.562V120.562Z" fill="black"/>
<path opacity="0.1" d="M210.89 141.72C210.742 143.462 209.931 145.139 209.273 146.791C207.955 150.102 207.212 153.613 206.655 157.136C206.156 160.293 205.578 163.876 202.884 165.625C202.114 166.085 201.29 166.447 200.431 166.703C196.559 168.042 192.655 169.385 188.579 169.873C184.502 170.362 180.225 169.934 176.669 167.902C175.638 167.364 174.753 166.584 174.09 165.629C173.131 164.11 173.113 162.207 172.653 160.469C172.261 159.178 171.781 157.916 171.217 156.691C170.423 154.759 169.813 152.741 169.206 150.755C168.643 148.909 168.081 147.062 167.521 145.214C167.337 144.658 167.2 144.088 167.112 143.509C166.972 144.428 167.245 145.39 167.521 146.292C168.081 148.142 168.643 149.989 169.206 151.832C169.813 153.833 170.423 155.836 171.217 157.768C171.781 158.993 172.261 160.255 172.653 161.546C173.106 163.284 173.124 165.187 174.09 166.706C174.753 167.661 175.638 168.441 176.669 168.979C180.225 171.012 184.513 171.439 188.579 170.951C192.644 170.462 196.545 169.119 200.431 167.78C201.29 167.524 202.114 167.162 202.884 166.703C205.56 164.954 206.156 161.37 206.655 158.213C207.212 154.691 207.955 151.179 209.273 147.868C210.056 145.9 211.069 143.9 210.897 141.785C210.897 141.763 210.89 141.742 210.89 141.72Z" fill="black"/>
<path opacity="0.1" d="M167.902 140.33C167.902 140.33 167.902 140.305 167.902 140.291C167.967 139.658 167.911 139.018 167.737 138.406C167.665 138.012 167.618 137.613 167.597 137.214C167.555 137.973 167.602 138.734 167.737 139.483C167.794 139.763 167.859 140.047 167.902 140.33Z" fill="black"/>
<path opacity="0.1" d="M168.998 131.547C169.274 131.083 169.587 130.642 169.935 130.229C169.278 130.857 168.064 130.297 167.809 129.425C167.715 129.778 167.715 130.149 167.809 130.502C167.897 130.765 168.054 131.001 168.263 131.184C168.471 131.368 168.725 131.493 168.998 131.547V131.547Z" fill="black"/>
</g>
<path opacity="0.1" d="M258.701 223.68C258.701 223.68 259.84 227.81 258.701 231.401C257.563 234.992 258.701 223.68 258.701 223.68Z" fill="black"/>
<path opacity="0.1" d="M263.55 227.892C263.55 227.892 264.027 233.135 262.95 234.065C261.872 234.995 263.55 227.892 263.55 227.892Z" fill="black"/>
<path d="M84.4692 173.119L120.963 172.76" stroke="#6C63FF" stroke-width="2" stroke-miterlimit="10"/>
<path d="M84.4692 177.597L120.963 177.242" stroke="#6C63FF" stroke-width="2" stroke-miterlimit="10"/>
<path d="M84.4692 182.079L120.963 181.72" stroke="#6C63FF" stroke-width="2" stroke-miterlimit="10"/>
</g>
<defs>
<clipPath id="clip0">
<rect width="374" height="199" fill="white" transform="translate(13 50)"/>
</clipPath>
</defs>
</svg>
