<svg width="400" height="300" viewBox="0 0 400 300" fill="none" xmlns="http://www.w3.org/2000/svg">
<path d="M200.805 232.552C181.223 232.552 162.248 225.772 147.111 213.367C131.975 200.963 121.613 183.701 117.793 164.524C113.973 145.346 116.93 125.439 126.161 108.195C135.392 90.9504 150.325 77.4354 168.416 69.9527C186.506 62.4701 206.636 61.4826 225.374 67.1586C244.112 72.8347 260.3 84.823 271.179 101.081C282.058 117.339 286.955 136.861 285.035 156.32C283.116 175.779 274.499 193.971 260.653 207.798C252.812 215.67 243.485 221.912 233.212 226.161C222.939 230.41 211.924 232.582 200.805 232.552V232.552ZM200.805 64.1689C154.494 64.1689 116.818 101.791 116.818 148.035C116.818 194.28 154.494 231.902 200.805 231.902C247.115 231.902 284.792 194.28 284.792 148.035C284.792 101.791 247.115 64.1689 200.805 64.1689V64.1689Z" fill="#CCCCCC"/>
<path d="M232.231 245.226V160.081H168.769V245.226H232.231Z" fill="#2F2E41"/>
<path d="M243.134 157.481H157.866V191.279H243.134V157.481Z" fill="#3F3D56"/>
<path d="M243.134 195.179H157.866V228.977H243.134V195.179Z" fill="#3F3D56"/>
<path d="M243.134 232.877H157.866V266.675H243.134V232.877Z" fill="#3F3D56"/>
<path d="M243.134 171.812H157.866V177.011H243.134V171.812Z" fill="#6C63FF"/>
<path d="M243.134 209.509H157.866V214.709H243.134V209.509Z" fill="#6C63FF"/>
<path d="M243.134 247.207H157.866V252.407H243.134V247.207Z" fill="#6C63FF"/>
<path d="M226.536 164.306C227.615 164.306 228.489 163.433 228.489 162.356C228.489 161.279 227.615 160.406 226.536 160.406C225.458 160.406 224.583 161.279 224.583 162.356C224.583 163.433 225.458 164.306 226.536 164.306Z" fill="#6C63FF"/>
<path d="M233.371 164.306C234.449 164.306 235.323 163.433 235.323 162.356C235.323 161.279 234.449 160.406 233.371 160.406C232.292 160.406 231.418 161.279 231.418 162.356C231.418 163.433 232.292 164.306 233.371 164.306Z" fill="#6C63FF"/>
<path d="M240.205 164.306C241.284 164.306 242.158 163.433 242.158 162.356C242.158 161.279 241.284 160.406 240.205 160.406C239.127 160.406 238.252 161.279 238.252 162.356C238.252 163.433 239.127 164.306 240.205 164.306Z" fill="#6C63FF"/>
<path d="M226.536 201.354C227.615 201.354 228.489 200.481 228.489 199.404C228.489 198.327 227.615 197.454 226.536 197.454C225.458 197.454 224.583 198.327 224.583 199.404C224.583 200.481 225.458 201.354 226.536 201.354Z" fill="#6C63FF"/>
<path d="M233.371 201.354C234.449 201.354 235.323 200.481 235.323 199.404C235.323 198.327 234.449 197.454 233.371 197.454C232.292 197.454 231.418 198.327 231.418 199.404C231.418 200.481 232.292 201.354 233.371 201.354Z" fill="#6C63FF"/>
<path d="M240.205 201.354C241.284 201.354 242.158 200.481 242.158 199.404C242.158 198.327 241.284 197.454 240.205 197.454C239.127 197.454 238.252 198.327 238.252 199.404C238.252 200.481 239.127 201.354 240.205 201.354Z" fill="#6C63FF"/>
<path d="M226.536 238.402C227.615 238.402 228.489 237.529 228.489 236.452C228.489 235.375 227.615 234.502 226.536 234.502C225.458 234.502 224.583 235.375 224.583 236.452C224.583 237.529 225.458 238.402 226.536 238.402Z" fill="#6C63FF"/>
<path d="M233.371 238.402C234.449 238.402 235.323 237.529 235.323 236.452C235.323 235.375 234.449 234.502 233.371 234.502C232.292 234.502 231.418 235.375 231.418 236.452C231.418 237.529 232.292 238.402 233.371 238.402Z" fill="#6C63FF"/>
<path d="M240.205 238.402C241.284 238.402 242.158 237.529 242.158 236.452C242.158 235.375 241.284 234.502 240.205 234.502C239.127 234.502 238.252 235.375 238.252 236.452C238.252 237.529 239.127 238.402 240.205 238.402Z" fill="#6C63FF"/>
<path d="M345 266.35H56V267H345V266.35Z" fill="#3F3D56"/>
<path d="M134.72 124.091V184.535C134.72 185.8 134.216 187.013 133.321 187.907C132.425 188.801 131.211 189.303 129.945 189.304H106.422C105.155 189.304 103.94 188.802 103.044 187.907C102.148 187.013 101.645 185.8 101.645 184.535V124.091C101.645 122.826 102.148 121.614 103.044 120.719C103.94 119.825 105.155 119.323 106.422 119.323H109.275C109.135 119.667 109.082 120.04 109.12 120.41C109.158 120.779 109.286 121.134 109.494 121.442C109.701 121.75 109.981 122.003 110.31 122.178C110.638 122.353 111.004 122.444 111.376 122.445H124.787C125.159 122.444 125.525 122.353 125.854 122.178C126.182 122.003 126.462 121.75 126.669 121.442C126.877 121.134 127.005 120.779 127.043 120.41C127.081 120.04 127.028 119.667 126.888 119.323H129.945C131.211 119.323 132.425 119.826 133.321 120.72C134.216 121.614 134.72 122.827 134.72 124.091V124.091Z" fill="#E6E6E6"/>
<path d="M133.153 130.866H103.211V172.464H133.153V130.866Z" fill="white"/>
<path d="M123.663 159.47H111.712V160.152H123.663V159.47Z" fill="#E6E6E6"/>
<path d="M130.191 161.974H111.7V162.655H130.191V161.974Z" fill="#6C63FF"/>
<path d="M126.211 164.332H111.7V165.014H126.211V164.332Z" fill="#E6E6E6"/>
<path d="M120.236 166.691H111.7V167.373H120.236V166.691Z" fill="#E6E6E6"/>
<path d="M124.504 169.05H111.7V169.732H124.504V169.05Z" fill="#E6E6E6"/>
<path d="M107.659 159.274H106.293V160.638H107.659V159.274Z" fill="#E6E6E6"/>
<path d="M107.659 161.633H106.293V162.996H107.659V161.633Z" fill="#6C63FF"/>
<path d="M107.659 163.992H106.293V165.355H107.659V163.992Z" fill="#E6E6E6"/>
<path d="M107.659 166.35H106.293V167.714H107.659V166.35Z" fill="#E6E6E6"/>
<path d="M107.659 168.709H106.293V170.073H107.659V168.709Z" fill="#E6E6E6"/>
<path d="M124.263 136.065H112.222V148.089H124.263V136.065Z" fill="#E6E6E6"/>
<path d="M240.529 36.0453H160.506V87.2219H240.529V36.0453Z" fill="#E6E6E6"/>
<path d="M232.885 50.3627H166.538V75.3978H232.885V50.3627Z" fill="white"/>
<path d="M194.549 54.7001H178.626V55.6087H194.549V54.7001Z" fill="#E6E6E6"/>
<path d="M203.249 58.0362H178.61V58.9448H203.249V58.0362Z" fill="#6C63FF"/>
<path d="M197.946 61.1793H178.61V62.0879H197.946V61.1793Z" fill="#E6E6E6"/>
<path d="M189.984 64.3224H178.61V65.231H189.984V64.3224Z" fill="#E6E6E6"/>
<path d="M195.671 67.4656H178.61V68.3742H195.671V67.4656Z" fill="#E6E6E6"/>
<path d="M173.225 54.4388H171.405V56.256H173.225V54.4388Z" fill="#E6E6E6"/>
<path d="M173.225 57.5819H171.405V59.3991H173.225V57.5819Z" fill="#6C63FF"/>
<path d="M173.225 60.725H171.405V62.5422H173.225V60.725Z" fill="#E6E6E6"/>
<path d="M173.225 63.8681H171.405V65.6853H173.225V63.8681Z" fill="#E6E6E6"/>
<path d="M173.225 67.0112H171.405V68.8284H173.225V67.0112Z" fill="#E6E6E6"/>
<path d="M229.629 53.4995H213.337V69.7677H229.629V53.4995Z" fill="#E6E6E6"/>
<path d="M240.495 36H160.472V39.3948H240.495V36Z" fill="#6C63FF"/>
<path d="M162.998 38.417C163.375 38.417 163.68 38.1119 163.68 37.7356C163.68 37.3592 163.375 37.0541 162.998 37.0541C162.621 37.0541 162.315 37.3592 162.315 37.7356C162.315 38.1119 162.621 38.417 162.998 38.417Z" fill="white"/>
<path d="M165.389 38.417C165.766 38.417 166.072 38.1119 166.072 37.7356C166.072 37.3592 165.766 37.0541 165.389 37.0541C165.013 37.0541 164.707 37.3592 164.707 37.7356C164.707 38.1119 165.013 38.417 165.389 38.417Z" fill="white"/>
<path d="M167.781 38.417C168.158 38.417 168.463 38.1119 168.463 37.7356C168.463 37.3592 168.158 37.0541 167.781 37.0541C167.404 37.0541 167.099 37.3592 167.099 37.7356C167.099 38.1119 167.404 38.417 167.781 38.417Z" fill="white"/>
<path d="M294.115 131.807H274.588V141.882H294.115V131.807Z" fill="#E6E6E6"/>
<path d="M294.115 167.88H274.588V177.955H294.115V167.88Z" fill="#E6E6E6"/>
<path d="M284.352 171.13C293.339 171.13 300.624 163.855 300.624 154.881C300.624 145.907 293.339 138.632 284.352 138.632C275.365 138.632 268.079 145.907 268.079 154.881C268.079 163.855 275.365 171.13 284.352 171.13Z" fill="#E6E6E6"/>
<path d="M284.352 167.555C291.362 167.555 297.044 161.881 297.044 154.881C297.044 147.881 291.362 142.207 284.352 142.207C277.342 142.207 271.659 147.881 271.659 154.881C271.659 161.881 277.342 167.555 284.352 167.555Z" fill="white"/>
<path d="M290.039 151.408H280.195V151.97H290.039V151.408Z" fill="#E2E2E2"/>
<path d="M295.417 153.471H280.186V154.033H295.417V153.471Z" fill="#6C63FF"/>
<path d="M292.139 155.414H280.186V155.976H292.139V155.414Z" fill="#E2E2E2"/>
<path d="M287.217 157.357H280.186V157.919H287.217V157.357Z" fill="#E2E2E2"/>
<path d="M290.733 159.3H280.186V159.862H290.733V159.3Z" fill="#E2E2E2"/>
<path d="M276.856 151.247H275.731V152.37H276.856V151.247Z" fill="#E2E2E2"/>
<path d="M276.856 153.19H275.731V154.313H276.856V153.19Z" fill="#6C63FF"/>
<path d="M276.856 155.133H275.731V156.256H276.856V155.133Z" fill="#E2E2E2"/>
<path d="M276.856 157.076H275.731V158.2H276.856V157.076Z" fill="#E2E2E2"/>
<path d="M276.856 159.019H275.731V160.143H276.856V159.019Z" fill="#E2E2E2"/>
</svg>
