<svg width="400" height="300" viewBox="0 0 400 300" fill="none" xmlns="http://www.w3.org/2000/svg">
<path d="M207 270C313.591 270 400 264.877 400 258.558C400 252.239 313.591 247.116 207 247.116C100.409 247.116 14 252.239 14 258.558C14 264.877 100.409 270 207 270Z" fill="#F2F2F2"/>
<path d="M365.409 41H75.4675V50.5084H365.409V41Z" fill="#F2F2F2"/>
<path d="M83.2262 48.0749C84.5447 48.0749 85.6135 46.9731 85.6135 45.614C85.6135 44.255 84.5447 43.1532 83.2262 43.1532C81.9078 43.1532 80.8389 44.255 80.8389 45.614C80.8389 46.9731 81.9078 48.0749 83.2262 48.0749Z" fill="#0062CC"/>
<path d="M90.985 48.0749C92.3034 48.0749 93.3723 46.9731 93.3723 45.614C93.3723 44.255 92.3034 43.1532 90.985 43.1532C89.6665 43.1532 88.5977 44.255 88.5977 45.614C88.5977 46.9731 89.6665 48.0749 90.985 48.0749Z" fill="#0062CC"/>
<path d="M98.7437 48.0749C100.062 48.0749 101.131 46.9731 101.131 45.614C101.131 44.255 100.062 43.1532 98.7437 43.1532C97.4252 43.1532 96.3564 44.255 96.3564 45.614C96.3564 46.9731 97.4252 48.0749 98.7437 48.0749Z" fill="#0062CC"/>
<path d="M75.6729 191.384L75.4674 191.566V255.708H365.408V143.041L361.953 143.311L75.6729 191.384Z" fill="#3F3D56"/>
<path d="M177.358 104.605H96.392V107.97H177.358V104.605Z" fill="#3F3D56"/>
<path d="M177.358 112.008H96.392V115.374H177.358V112.008Z" fill="#3F3D56"/>
<path d="M123.816 119.412H96.392V122.777H123.816V119.412Z" fill="#3F3D56"/>
<path d="M342.473 198.034H261.507V201.399H342.473V198.034Z" fill="white"/>
<path d="M342.473 205.438H261.507V208.803H342.473V205.438Z" fill="white"/>
<path d="M288.931 212.842H261.507V216.207H288.931V212.842Z" fill="white"/>
<path d="M211.202 252.605C212.961 252.605 214.387 251.135 214.387 249.322C214.387 247.509 212.961 246.039 211.202 246.039C209.443 246.039 208.017 247.509 208.017 249.322C208.017 251.135 209.443 252.605 211.202 252.605Z" fill="#F2F2F2"/>
<path d="M220.438 252.933C222.197 252.933 223.623 251.463 223.623 249.65C223.623 247.837 222.197 246.367 220.438 246.367C218.679 246.367 217.253 247.837 217.253 249.65C217.253 251.463 218.679 252.933 220.438 252.933Z" fill="#F2F2F2"/>
<path d="M229.674 253.262C231.433 253.262 232.859 251.792 232.859 249.979C232.859 248.165 231.433 246.696 229.674 246.696C227.915 246.696 226.489 248.165 226.489 249.979C226.489 251.792 227.915 253.262 229.674 253.262Z" fill="#F2F2F2"/>
<path d="M220.467 252.277C221.874 252.277 223.015 251.101 223.015 249.65C223.015 248.2 221.874 247.024 220.467 247.024C219.06 247.024 217.919 248.2 217.919 249.65C217.919 251.101 219.06 252.277 220.467 252.277Z" fill="#3F3D56"/>
<path d="M150.515 143.125H123.091V149.575H150.515V143.125Z" fill="#3F3D56"/>
<path d="M313.522 230.399H286.098V236.848H313.522V230.399Z" fill="white"/>
<path opacity="0.3" d="M136.958 165.94C147.435 165.94 155.929 157.185 155.929 146.385C155.929 135.585 147.435 126.83 136.958 126.83C126.481 126.83 117.987 135.585 117.987 146.385C117.987 157.185 126.481 165.94 136.958 165.94Z" fill="#0062CC"/>
<path opacity="0.3" d="M136.958 159.421C143.943 159.421 149.605 153.585 149.605 146.385C149.605 139.185 143.943 133.348 136.958 133.348C129.973 133.348 124.311 139.185 124.311 146.385C124.311 153.585 129.973 159.421 136.958 159.421Z" fill="#0062CC"/>
<path d="M136.958 155.438C141.808 155.438 145.741 151.385 145.741 146.385C145.741 141.385 141.808 137.331 136.958 137.331C132.107 137.331 128.175 141.385 128.175 146.385C128.175 151.385 132.107 155.438 136.958 155.438Z" fill="#0062CC"/>
<path opacity="0.3" d="M296.584 117.476C307.061 117.476 315.554 108.721 315.554 97.9214C315.554 87.1215 307.061 78.3665 296.584 78.3665C286.106 78.3665 277.613 87.1215 277.613 97.9214C277.613 108.721 286.106 117.476 296.584 117.476Z" fill="#0062CC"/>
<path opacity="0.3" d="M296.584 110.958C303.568 110.958 309.231 105.121 309.231 97.9214C309.231 90.7215 303.568 84.8848 296.584 84.8848C289.599 84.8848 283.937 90.7215 283.937 97.9214C283.937 105.121 289.599 110.958 296.584 110.958Z" fill="#0062CC"/>
<path d="M296.584 106.975C301.434 106.975 305.366 102.921 305.366 97.9214C305.366 92.9214 301.434 88.8682 296.584 88.8682C291.733 88.8682 287.801 92.9214 287.801 97.9214C287.801 102.921 291.733 106.975 296.584 106.975Z" fill="#0062CC"/>
<path opacity="0.3" d="M299.965 253.213C310.442 253.213 318.936 244.458 318.936 233.658C318.936 222.858 310.442 214.103 299.965 214.103C289.488 214.103 280.994 222.858 280.994 233.658C280.994 244.458 289.488 253.213 299.965 253.213Z" fill="#0062CC"/>
<path opacity="0.3" d="M299.965 246.695C306.95 246.695 312.612 240.858 312.612 233.658C312.612 226.458 306.95 220.621 299.965 220.621C292.98 220.621 287.318 226.458 287.318 233.658C287.318 240.858 292.98 246.695 299.965 246.695Z" fill="#0062CC"/>
<path d="M299.965 242.711C304.816 242.711 308.748 238.658 308.748 233.658C308.748 228.658 304.816 224.605 299.965 224.605C295.114 224.605 291.182 228.658 291.182 233.658C291.182 238.658 295.114 242.711 299.965 242.711Z" fill="#0062CC"/>
<path d="M45.5904 80.6029L53.3984 80.915L53.7877 70.5669L45.9797 70.2548L45.5904 80.6029Z" fill="#0062CC"/>
<path d="M81.2017 106.496C81.2017 106.496 92.0146 101.171 91.8416 105.77C91.6686 110.369 80.9422 113.395 80.9422 113.395L81.2017 106.496Z" fill="#FFB9B9"/>
<path d="M75.2694 145.411C75.2694 145.411 80.3707 158.281 82.2556 167.569C84.1404 176.857 87.0109 189.638 83.3186 198.703C79.6262 207.767 69.1286 234.408 69.0204 237.283C68.9123 240.157 69.9196 243.076 67.6887 242.987C65.4578 242.898 53.3178 238.958 52.825 237.211C52.3322 235.464 56.9669 231.043 56.9669 231.043L68.4116 194.076L56.4708 169.993L47.858 205.922L46.171 250.764C46.171 250.764 37.8918 248.13 36.6898 250.385C36.6898 250.385 32.9805 245.054 32.5093 242.733C32.0381 240.411 34.2611 196.166 34.2611 196.166C34.2611 196.166 26.6614 145.771 32.7963 146.016C38.9312 146.261 62.9609 131.101 75.2694 145.411Z" fill="#2F2E41"/>
<path d="M67.7752 240.688C67.7752 240.688 73.4343 253.581 73.9704 254.178C74.5065 254.775 78.1943 260.68 75.4057 260.569C72.6171 260.457 66.0326 257.315 61.1862 252.515C56.3397 247.715 49.9499 239.399 50.5292 238.847C51.1086 238.294 55.0775 236.725 55.0775 236.725L67.7752 240.688Z" fill="#2F2E41"/>
<path d="M45.1637 247.844C45.1637 247.844 45.5052 253.616 46.5341 255.96C47.563 258.304 47.4333 261.753 44.6447 261.642C41.8561 261.53 34.649 260.091 34.649 260.091C34.649 260.091 34.2211 256.619 34.8004 256.067C35.3798 255.514 37.8485 249.279 36.798 247.51C35.7474 245.741 45.1637 247.844 45.1637 247.844Z" fill="#2F2E41"/>
<path d="M41.0382 60.5572C41.0382 60.5572 35.0934 70.1075 32.776 72.3179C30.4586 74.5283 36.9782 79.395 36.9782 79.395L48.647 81.013C48.647 81.013 48.5002 70.0676 49.1012 68.9401C49.7022 67.8126 41.0382 60.5572 41.0382 60.5572Z" fill="#FFB9B9"/>
<path d="M51.1807 73.0536C51.1807 73.0536 48.7768 77.5636 46.5459 77.4744C44.3151 77.3853 32.776 72.3179 32.2832 70.5709C31.7903 68.824 28.4611 83.0849 28.4611 83.0849L56.6963 134.305L63.5835 129.398L60.2464 99.3252L57.5056 83.0944L51.1807 73.0536Z" fill="#0062CC"/>
<path d="M31.2417 118.893C32.368 121.322 33.0714 123.855 32.9739 126.447C32.9695 126.562 32.9652 126.677 32.9553 126.792C32.6881 132.113 30.7865 138.267 30.1043 142.742C29.6093 145.952 29.7502 148.295 31.5727 148.846C35.9912 150.174 30.9285 151.123 48.0231 156.989C65.1176 162.854 68.1009 157.791 68.1441 156.641C68.1874 155.492 65.7232 146.757 66.3026 146.204C66.8819 145.651 74.4088 153.437 76.6829 152.377C78.957 151.316 76.9424 145.478 76.9424 145.478C76.9424 145.478 71.8194 133.182 71.9276 130.308C72.0357 127.433 64.1674 113.876 64.1674 113.876L58.8156 77.9649C58.8156 77.9649 56.7578 73.2766 53.9908 72.5902C51.2239 71.9039 48.9281 73.5394 48.9281 73.5394L53.5583 84.0882L58.4434 102.708L57.6262 109.584C57.6262 109.584 51.9455 97.2662 48.2145 92.511C44.4834 87.7558 36.5286 76.4983 36.5286 76.4983C36.5286 76.4983 34.6714 70.0389 36.0734 68.1085C37.4756 66.1725 30.2253 65.8826 27.1339 73.8197C25.4955 78.0264 22.8354 84.2995 21.169 90.1402C19.6841 95.3145 18.9826 100.152 20.4538 102.917C22.7022 107.14 28.3582 112.692 31.2417 118.893Z" fill="#575A89"/>
<path opacity="0.1" d="M20.4538 102.916C22.7022 107.14 28.3582 112.692 31.2417 118.893C31.9948 116.096 32.9136 113.202 32.9136 113.202C32.9136 113.202 36.4375 93.7674 26.0139 88.7447C24.2868 88.5726 22.5594 89.0701 21.169 90.1401C19.6841 95.3144 18.9826 100.152 20.4538 102.916Z" fill="black"/>
<path d="M61.833 101.692L70.67 104.348L82.9398 104.838L84.202 115.828L64.0376 117.325C64.0376 117.325 59.0012 102.73 61.833 101.692Z" fill="#575A89"/>
<path d="M47.4231 138.643C47.4231 138.643 59.2452 140.665 56.547 144.332C53.8487 147.999 43.3757 144.144 43.3757 144.144L47.4231 138.643Z" fill="#FFB9B9"/>
<path opacity="0.1" d="M32.9554 126.792C32.6882 132.113 30.7866 138.267 30.1044 142.742C33.8705 146.416 37.4518 149.657 38.8014 149.711C41.59 149.822 46.0734 149.426 47.7249 150.068C49.3764 150.709 50.3451 139.809 50.3451 139.809C50.3451 139.809 49.3594 136.315 44.9625 134.412C41.9948 133.124 36.306 129.632 32.9554 126.792Z" fill="black"/>
<path d="M26.1437 85.2954C26.1437 85.2954 16.7057 83.7666 17.2156 99.9083C17.7255 116.05 16.2208 126.354 20.0167 129.384C23.8125 132.415 36.1426 146.15 38.9312 146.261C41.7198 146.373 46.2032 145.976 47.8547 146.618C49.5062 147.26 50.4748 136.359 50.4748 136.359C50.4748 136.359 49.4892 132.865 45.0923 130.962C40.6955 129.059 30.3367 122.312 30.4232 120.012C30.5097 117.712 33.0434 109.753 33.0434 109.753C33.0434 109.753 36.5673 90.3181 26.1437 85.2954Z" fill="#575A89"/>
<path d="M49.3607 74.6986C56.1422 74.6986 61.6397 69.0318 61.6397 62.0414C61.6397 55.051 56.1422 49.3842 49.3607 49.3842C42.5792 49.3842 37.0817 55.051 37.0817 62.0414C37.0817 69.0318 42.5792 74.6986 49.3607 74.6986Z" fill="#FFB9B9"/>
<path d="M57.6285 43.8999C57.9246 44.163 58.2793 44.3464 58.6609 44.434C58.8525 44.4692 59.0498 44.4248 59.2097 44.3106C59.3697 44.1964 59.4793 44.0216 59.5147 43.8244C59.7956 44.4249 60.1126 45.065 60.6862 45.3731C61.2597 45.6813 62.1467 45.4229 62.2293 44.7616C62.3131 45.2637 62.5286 45.7326 62.8524 46.1174C63.2083 46.4672 63.8537 46.5555 64.1644 46.1626C63.9132 47.5776 64.0682 49.0328 63.9893 50.469C63.9104 51.9052 63.5389 53.4278 62.4863 54.3722C60.9511 55.7495 58.6426 55.4096 56.6232 55.1486C56.3178 55.0826 56.0009 55.1004 55.7044 55.2004C54.9482 55.5325 54.9825 56.6175 54.9723 57.4646C54.9107 58.951 54.34 60.3668 53.3616 61.4605C52.3832 62.5543 51.0604 63.2552 49.6282 63.4389C48.8266 63.5664 48.0088 63.3606 47.3543 62.8668C46.781 62.3659 46.4881 61.5494 45.8311 61.1731C44.7624 60.5609 43.4663 61.4537 42.6849 62.423C41.9036 63.3923 41.1335 64.5846 39.923 64.7621C38.3222 64.9967 37.1029 63.315 36.5046 61.7665C35.6793 59.5961 35.2839 57.2773 35.3417 54.9469C35.3995 52.6165 35.9094 50.3216 36.8413 48.1976C40.184 40.6866 51.6027 39.4986 57.6285 43.8999Z" fill="#2F2E41"/>
<path d="M352.388 245.158C356.713 252.76 365.434 255.769 365.434 255.769C365.434 255.769 367.145 246.454 362.82 238.852C358.496 231.25 349.774 228.24 349.774 228.24C349.774 228.24 348.063 237.556 352.388 245.158Z" fill="#F2F2F2"/>
<path d="M355.086 242.504C362.565 246.774 365.698 255.688 365.698 255.688C365.698 255.688 356.706 257.679 349.227 253.41C341.748 249.14 338.615 240.226 338.615 240.226C338.615 240.226 347.608 238.235 355.086 242.504Z" fill="#0062CC"/>
</svg>
